<svg width="63" height="63" viewBox="0 0 63 63" fill="none" xmlns="http://www.w3.org/2000/svg">
<path d="M51.5214 37.2623L57.8032 46.692L46.4883 45.965L45.9204 45.9285L45.9573 46.4963L46.6914 57.8108L37.2545 51.529L36.7817 51.2143L36.5295 51.7231L31.4962 61.8744L26.4628 51.7231L26.2105 51.2141L25.7377 51.5291L16.308 57.8108L17.035 46.496L17.0715 45.9285L16.504 45.965L5.18915 46.692L11.4709 37.2623L11.7859 36.7895L11.2769 36.5372L1.12556 31.5038L11.2769 26.4705L11.7857 26.2183L11.471 25.7455L5.18871 16.308L16.504 17.035L17.0715 17.0715L17.035 16.504L16.308 5.19622L25.7379 11.4711L26.2106 11.7856L26.4628 11.2769L31.4962 1.12557L36.5295 11.2769L36.7816 11.7854L37.2543 11.4711L46.6914 5.19622L45.9573 16.5037L45.9204 17.0715L46.4883 17.035L57.8036 16.308L51.5213 25.7455L51.2065 26.2184L51.7155 26.4706L61.8738 31.5038L51.7155 36.5371L51.2064 36.7894L51.5214 37.2623Z" fill="#FFC621" stroke="#292D35"/>
</svg>
