<svg width="408" height="693" viewBox="0 0 408 693" fill="none" xmlns="http://www.w3.org/2000/svg">
<path d="M90.0004 112.444C77.6113 112.444 67.5381 102.371 67.5381 89.9818C67.5381 77.5927 77.6113 67.5195 90.0004 67.5195C102.39 67.5195 112.463 77.5927 112.463 89.9818C112.444 102.371 102.371 112.444 90.0004 112.444ZM90.0004 76.9526C82.8079 76.9526 76.9523 82.8082 76.9523 90.0007C76.9523 97.1932 82.8079 103.049 90.0004 103.049C97.1929 103.049 103.049 97.1932 103.049 90.0007C103.049 82.8082 97.1929 76.9526 90.0004 76.9526Z" fill="#FF84AC"/>
<path d="M90.0377 129.558C87.3264 129.558 84.6151 129.276 81.9414 128.73C71.6046 126.583 62.7176 120.52 56.9184 111.69C51.1193 102.859 49.1234 92.2965 51.2699 81.9409C53.1339 72.9785 58.0858 64.9011 65.1841 59.1773C72.2071 53.5287 81 50.422 89.9624 50.422C92.6737 50.422 95.385 50.7045 98.0586 51.2505C108.395 53.3969 117.282 59.4597 123.082 68.2902C128.881 77.1208 130.877 87.6836 128.73 98.0392C126.866 107.002 121.914 115.079 114.816 120.803C107.774 126.451 98.9812 129.558 90.0377 129.558ZM89.9624 59.8363C75.7845 59.8363 63.3766 69.9283 60.477 83.8425C57.0879 100.11 67.5753 116.115 83.8431 119.504C85.8766 119.937 87.9665 120.144 90.0188 120.144C104.197 120.144 116.605 110.052 119.504 96.1375C121.142 88.2484 119.617 80.2086 115.211 73.4681C110.805 66.7275 104.027 62.1145 96.1381 60.4764C94.1046 60.0622 92.0147 59.8363 89.9624 59.8363Z" fill="#FF84AC"/>
<path d="M90.0558 146.11C88.3236 146.11 86.5725 146.034 84.8215 145.865C69.8905 144.49 56.4094 137.373 46.8257 125.85C37.242 114.327 32.742 99.7539 34.1165 84.8418C35.4157 70.8334 41.855 57.8982 52.286 48.4652C62.6416 39.0698 76.0098 33.9108 89.924 33.9108C91.6562 33.9108 93.4072 33.9861 95.1583 34.1556C110.089 35.53 123.57 42.6472 133.154 54.1702C142.738 65.6932 147.238 80.2665 145.863 95.1974C144.564 109.206 138.125 122.141 127.694 131.574C117.338 140.932 103.97 146.11 90.0558 146.11ZM89.924 43.3062C65.6918 43.3062 45.7336 61.5322 43.493 85.7079C41.1206 111.352 60.0433 134.135 85.6876 136.507C87.1374 136.639 88.6061 136.714 90.0558 136.714C114.288 136.714 134.246 118.488 136.487 94.3125C138.859 68.6681 119.937 45.8857 94.2922 43.5133C92.8425 43.3627 91.3738 43.3062 89.924 43.3062Z" fill="#FF84AC"/>
<path d="M90.036 162.981C89.1887 162.981 88.3225 162.962 87.4564 162.943C77.6092 162.604 68.1197 160.345 59.2515 156.221C50.6845 152.248 43.0778 146.713 36.6008 139.784C30.1238 132.855 25.1531 124.872 21.7828 116.06C18.2807 106.928 16.6991 97.3069 17.038 87.4596C17.697 68.424 25.605 50.6688 39.3309 37.4512C53.0004 24.2713 70.9816 17.0035 89.9418 17.0035C90.7891 17.0035 91.6552 17.0223 92.5213 17.0412C102.369 17.3801 111.858 19.6395 120.726 23.7629C129.293 27.7357 136.9 33.2713 143.377 40.2002C149.854 47.129 154.825 55.1123 158.195 63.924C161.697 73.0558 163.279 82.6771 162.94 92.5244C162.281 111.56 154.373 129.315 140.647 142.533C126.977 155.732 108.996 162.981 90.036 162.981ZM89.9418 26.4178C55.5234 26.4178 27.6384 53.3801 26.4522 87.7985C25.2284 122.838 52.7556 152.324 87.7766 153.547C88.5297 153.566 89.2828 153.585 90.0171 153.585C124.436 153.585 152.321 126.623 153.507 92.2044C154.731 57.1646 127.203 27.6792 92.1824 26.4554C91.4481 26.4366 90.695 26.4178 89.9418 26.4178Z" fill="#FF84AC"/>
<path d="M90 180C77.8556 180 66.069 177.628 54.9602 172.92C44.2468 168.383 34.6255 161.906 26.3598 153.64C18.0941 145.374 11.5983 135.753 7.07952 125.04C2.39123 113.931 0 102.144 0 90C0 77.8556 2.3724 66.069 7.07952 54.9602C11.6172 44.2468 18.0941 34.6255 26.3598 26.3598C34.6255 18.0941 44.2468 11.5983 54.9602 7.07952C66.069 2.39123 77.8556 0 90 0C102.144 0 113.931 2.3724 125.04 7.07952C135.753 11.6172 145.374 18.0941 153.64 26.3598C161.906 34.6255 168.402 44.2468 172.92 54.9602C177.609 66.069 180 77.8556 180 90C180 102.144 177.628 113.931 172.92 125.04C168.383 135.753 161.906 145.374 153.64 153.64C145.374 161.906 135.753 168.402 125.04 172.92C113.931 177.628 102.144 180 90 180ZM90 9.39538C45.5649 9.39538 9.41423 45.546 9.41423 89.9812C9.41423 134.416 45.5649 170.567 90 170.567C134.435 170.567 170.586 134.416 170.586 89.9812C170.586 45.5648 134.435 9.39538 90 9.39538Z" fill="#FF84AC"/>
<ellipse cx="202.907" cy="193" rx="105" ry="106" transform="rotate(90 202.907 193)" fill="#604AFF"/>
<rect x="407.643" y="199.038" width="196.603" height="197.995" transform="rotate(90 407.643 199.038)" fill="#FFC621"/>
<path d="M209.835 395.615C235.812 395.615 261.534 390.498 285.533 380.557C309.532 370.617 331.338 356.046 349.706 337.678C368.074 319.31 382.645 297.504 392.585 273.505C402.526 249.506 407.643 223.784 407.643 197.807L209.835 197.807L209.835 395.615Z" fill="#FF84AC"/>
<path d="M209.406 296.605C222.416 296.605 235.298 294.042 247.317 289.064C259.336 284.085 270.256 276.788 279.455 267.589C288.654 258.39 295.951 247.469 300.93 235.45C305.908 223.431 308.471 210.549 308.471 197.54L209.406 197.54L209.406 296.605Z" fill="#FE5101"/>
<rect x="209.996" y="298.558" width="196.603" height="197.995" transform="rotate(90 209.996 298.558)" fill="#FFC621"/>
<path d="M209.836 297.193C183.859 297.193 158.137 302.31 134.138 312.251C110.139 322.191 88.3328 336.762 69.9647 355.13C51.5966 373.498 37.0263 395.304 27.0855 419.303C17.1448 443.302 12.0283 469.024 12.0283 495.001L209.836 495.001L209.836 297.193Z" fill="#604AFF"/>
<path d="M210.103 395.99C197.093 395.99 184.211 398.552 172.192 403.53C160.173 408.509 149.252 415.806 140.053 425.005C130.854 434.204 123.557 445.125 118.579 457.144C113.6 469.163 111.038 482.045 111.038 495.054L210.103 495.054L210.103 395.99Z" fill="#FFC621"/>
</svg>
