<svg width="95" height="95" viewBox="0 0 95 95" fill="none" xmlns="http://www.w3.org/2000/svg">
<path d="M49.7969 0H45.2031V95H49.7969V0Z" fill="#FFC621"/>
<path d="M95 45.2031H0V49.7969H95V45.2031Z" fill="#FFC621"/>
<path d="M15.5276 12.2849L12.2793 15.5332L79.4538 82.7077L82.7021 79.4594L15.5276 12.2849Z" fill="#FFC621"/>
<path d="M79.4538 12.2845L12.2793 79.459L15.5276 82.7073L82.7021 15.5327L79.4538 12.2845Z" fill="#FFC621"/>
<path d="M4.39047 27.4666L2.65723 31.7209L90.6367 67.5644L92.37 63.3101L4.39047 27.4666Z" fill="#FFC621"/>
<path d="M63.3103 2.66329L27.4668 90.6428L31.7211 92.3761L67.5646 4.39653L63.3103 2.66329Z" fill="#FFC621"/>
<path d="M90.7409 27.6259L2.60938 63.0989L4.3247 67.3606L92.4562 31.8875L90.7409 27.6259Z" fill="#FFC621"/>
<path d="M31.8691 2.6113L27.6074 4.32617L63.0709 92.4577L67.3326 90.7428L31.8691 2.6113Z" fill="#FFC621"/>
</svg>
