<svg width="408" height="839" viewBox="0 0 408 839" fill="none" xmlns="http://www.w3.org/2000/svg">
<rect y="202" width="408" height="254" fill="#604AFF"/>
<ellipse cx="67.6711" cy="262.365" rx="16.6711" ry="16.3649" fill="white" stroke="#292D35" stroke-width="1.66371"/>
<ellipse cx="203.259" cy="262.365" rx="16.6711" ry="16.3649" fill="white" stroke="#292D35" stroke-width="1.66371"/>
<ellipse cx="271.051" cy="262.365" rx="16.6711" ry="16.3649" fill="white" stroke="#292D35" stroke-width="1.66371"/>
<ellipse cx="338.845" cy="262.365" rx="16.6711" ry="16.3649" fill="white" stroke="#292D35" stroke-width="1.66371"/>
<ellipse cx="136.312" cy="262.365" rx="16.6711" ry="16.3649" fill="white" stroke="#292D35" stroke-width="1.66371"/>
<ellipse cx="67.6711" cy="328.913" rx="16.6711" ry="16.3649" fill="white" stroke="#292D35" stroke-width="1.66371"/>
<ellipse cx="203.259" cy="328.913" rx="16.6711" ry="16.3649" fill="white" stroke="#292D35" stroke-width="1.66371"/>
<ellipse cx="271.051" cy="328.913" rx="16.6711" ry="16.3649" fill="white" stroke="#292D35" stroke-width="1.66371"/>
<ellipse cx="338.845" cy="328.913" rx="16.6711" ry="16.3649" fill="white" stroke="#292D35" stroke-width="1.66371"/>
<ellipse cx="136.312" cy="328.913" rx="16.6711" ry="16.3649" fill="white" stroke="#292D35" stroke-width="1.66371"/>
<ellipse cx="67.6711" cy="395.462" rx="16.6711" ry="16.3649" fill="white" stroke="#292D35" stroke-width="1.66371"/>
<ellipse cx="203.259" cy="395.462" rx="16.6711" ry="16.3649" fill="white" stroke="#292D35" stroke-width="1.66371"/>
<ellipse cx="271.051" cy="395.462" rx="16.6711" ry="16.3649" fill="white" stroke="#292D35" stroke-width="1.66371"/>
<ellipse cx="338.845" cy="395.462" rx="16.6711" ry="16.3649" fill="white" stroke="#292D35" stroke-width="1.66371"/>
<ellipse cx="136.312" cy="395.462" rx="16.6711" ry="16.3649" fill="white" stroke="#292D35" stroke-width="1.66371"/>
<rect y="456" width="408" height="383" fill="#FF84AC"/>
<path fill-rule="evenodd" clip-rule="evenodd" d="M265.239 595.165C265.243 594.812 265.245 594.457 265.245 594.103C265.245 534.951 217.284 487 158.122 487C98.9603 487 51 534.951 51 594.103C51 648.111 90.9826 692.782 142.968 700.142C142.965 700.496 142.963 700.85 142.963 701.205C142.963 760.356 190.923 808.307 250.085 808.307C309.247 808.307 357.208 760.356 357.208 701.205C357.208 647.197 317.225 602.525 265.239 595.165ZM265.239 595.165C260.289 594.464 255.23 594.102 250.085 594.102C191.278 594.102 143.539 641.48 142.968 700.142C147.919 700.843 152.978 701.205 158.122 701.205C216.93 701.205 264.669 653.827 265.239 595.165Z" fill="white"/>
<path d="M264.413 594.103C264.413 594.455 264.411 594.806 264.408 595.157L266.071 595.173C266.075 594.817 266.076 594.46 266.076 594.103H264.413ZM158.122 487.832C216.825 487.832 264.413 535.411 264.413 594.103H266.076C266.076 534.492 217.744 486.168 158.122 486.168V487.832ZM51.8319 594.103C51.8319 535.411 99.4196 487.832 158.122 487.832V486.168C98.501 486.168 50.1681 534.492 50.1681 594.103H51.8319ZM143.085 699.318C91.5036 692.016 51.8319 647.69 51.8319 594.103H50.1681C50.1681 648.531 90.4617 693.548 142.852 700.965L143.085 699.318ZM143.795 701.205C143.795 700.853 143.797 700.501 143.8 700.15L142.136 700.134C142.133 700.49 142.131 700.847 142.131 701.205H143.795ZM250.085 807.475C191.383 807.475 143.795 759.896 143.795 701.205H142.131C142.131 760.815 190.464 809.139 250.085 809.139V807.475ZM356.376 701.205C356.376 759.896 308.788 807.475 250.085 807.475V809.139C309.707 809.139 358.04 760.815 358.04 701.205H356.376ZM265.123 595.989C316.704 603.292 356.376 647.617 356.376 701.205H358.04C358.04 646.776 317.746 601.759 265.356 594.342L265.123 595.989ZM250.085 594.934C255.19 594.934 260.211 595.294 265.123 595.989L265.356 594.342C260.367 593.635 255.269 593.27 250.085 593.27V594.934ZM143.8 700.15C144.366 641.944 191.735 594.934 250.085 594.934V593.27C190.822 593.27 142.711 641.016 142.136 700.134L143.8 700.15ZM158.122 700.373C153.017 700.373 147.997 700.014 143.085 699.318L142.852 700.965C147.841 701.672 152.939 702.037 158.122 702.037V700.373ZM264.408 595.157C263.842 653.363 216.473 700.373 158.122 700.373V702.037C217.386 702.037 265.497 654.291 266.071 595.173L264.408 595.157Z" fill="#292D35"/>
<ellipse cx="156.331" cy="595.395" rx="63.698" ry="63.27" fill="#292D35"/>
<ellipse cx="252.501" cy="705.703" rx="63.2816" ry="62.8537" fill="#292D35"/>
<rect x="204" y="202" width="204" height="200" transform="rotate(-180 204 202)" fill="#FFC621"/>
<path d="M203 200L100 101.5L203 3L203 200Z" fill="white" stroke="#292D35" stroke-width="2"/>
<path d="M0 202L102 102L0 2L0 202Z" fill="#292D35"/>
<rect x="204" y="2" width="204" height="200" fill="#1AEF96"/>
<mask id="mask0_1_39906" style="mask-type:alpha" maskUnits="userSpaceOnUse" x="204" y="2" width="204" height="200">
<rect x="204" y="2" width="204" height="200" fill="#FF2B15"/>
</mask>
<g mask="url(#mask0_1_39906)">
<path fill-rule="evenodd" clip-rule="evenodd" d="M195.733 203.623L410.669 -8.87744L419.442 -0.0041523L204.506 212.496L195.733 203.623ZM267.407 202.71L410.698 62.8137L419.414 71.742L276.124 211.638L267.407 202.71ZM339.094 -7.17448L193.083 132.721L201.715 141.731L347.727 1.83533L339.094 -7.17448ZM340.866 202.709L410.698 134.532L419.415 143.461L349.583 211.638L340.866 202.709ZM265.621 -7.16176L193.068 62.7861L201.729 71.769L274.281 1.82113L265.621 -7.16176Z" fill="white"/>
<path d="M410.669 -8.87744L411.261 -9.46229L410.676 -10.0538L410.084 -9.46899L410.669 -8.87744ZM195.733 203.623L195.148 203.031L194.557 203.616L195.141 204.207L195.733 203.623ZM419.442 -0.0041523L420.027 0.5874L420.618 0.00255203L420.034 -0.589L419.442 -0.0041523ZM204.506 212.496L203.914 213.081L204.499 213.672L205.091 213.087L204.506 212.496ZM410.698 62.8137L411.293 62.2326L410.712 61.6373L410.116 62.2185L410.698 62.8137ZM267.407 202.71L266.826 202.114L266.23 202.695L266.812 203.291L267.407 202.71ZM419.414 71.742L419.995 72.3372L420.591 71.7561L420.01 71.1608L419.414 71.742ZM276.124 211.638L275.528 212.219L276.109 212.814L276.705 212.233L276.124 211.638ZM193.083 132.721L192.507 132.121L191.907 132.696L192.482 133.297L193.083 132.721ZM339.094 -7.17448L339.695 -7.74998L339.119 -8.35063L338.519 -7.77514L339.094 -7.17448ZM201.715 141.731L201.115 142.307L201.69 142.907L202.291 142.332L201.715 141.731ZM347.727 1.83533L348.302 2.43599L348.903 1.86049L348.327 1.25984L347.727 1.83533ZM410.698 134.532L411.293 133.951L410.712 133.356L410.117 133.937L410.698 134.532ZM340.866 202.709L340.285 202.114L339.69 202.695L340.271 203.29L340.866 202.709ZM419.415 143.461L419.996 144.056L420.591 143.475L420.01 142.879L419.415 143.461ZM349.583 211.638L348.988 212.219L349.569 212.814L350.164 212.233L349.583 211.638ZM193.068 62.7861L192.491 62.1873L191.892 62.7646L192.469 63.3635L193.068 62.7861ZM265.621 -7.16176L266.22 -7.73913L265.642 -8.33799L265.043 -7.76062L265.621 -7.16176ZM201.729 71.769L201.13 72.3464L201.707 72.9453L202.306 72.3679L201.729 71.769ZM274.281 1.82113L274.858 2.41999L275.457 1.84263L274.88 1.24377L274.281 1.82113ZM410.084 -9.46899L195.148 203.031L196.318 204.214L411.254 -8.28589L410.084 -9.46899ZM420.034 -0.589L411.261 -9.46229L410.078 -8.29259L418.85 0.580695L420.034 -0.589ZM205.091 213.087L420.027 0.5874L418.857 -0.595705L203.921 211.904L205.091 213.087ZM195.141 204.207L203.914 213.081L205.097 211.911L196.325 203.038L195.141 204.207ZM410.116 62.2185L266.826 202.114L267.988 203.305L411.279 63.4089L410.116 62.2185ZM420.01 71.1608L411.293 62.2326L410.102 63.3948L418.819 72.3231L420.01 71.1608ZM276.705 212.233L419.995 72.3372L418.833 71.1467L275.542 211.043L276.705 212.233ZM266.812 203.291L275.528 212.219L276.719 211.057L268.002 202.128L266.812 203.291ZM193.658 133.322L339.67 -6.57383L338.519 -7.77514L192.507 132.121L193.658 133.322ZM202.316 141.156L193.683 132.146L192.482 133.297L201.115 142.307L202.316 141.156ZM347.151 1.23468L201.14 141.131L202.291 142.332L348.302 2.43599L347.151 1.23468ZM338.494 -6.59899L347.126 2.41083L348.327 1.25984L339.695 -7.74998L338.494 -6.59899ZM410.117 133.937L340.285 202.114L341.447 203.305L411.279 135.127L410.117 133.937ZM420.01 142.879L411.293 133.951L410.103 135.113L418.819 144.042L420.01 142.879ZM350.164 212.233L419.996 144.056L418.833 142.865L349.002 211.042L350.164 212.233ZM340.271 203.29L348.988 212.219L350.178 211.057L341.461 202.128L340.271 203.29ZM193.646 63.385L266.198 -6.5629L265.043 -7.76062L192.491 62.1873L193.646 63.385ZM202.328 71.1917L193.667 62.2088L192.469 63.3635L201.13 72.3464L202.328 71.1917ZM273.704 1.22227L201.151 71.1702L202.306 72.3679L274.858 2.41999L273.704 1.22227ZM265.022 -6.5844L273.682 2.3985L274.88 1.24377L266.22 -7.73913L265.022 -6.5844Z" fill="#292D35"/>
</g>
</svg>
