<svg width="360" height="104" viewBox="0 0 360 104" fill="none" xmlns="http://www.w3.org/2000/svg">
<rect x="52.999" y="104" width="104" height="207" transform="rotate(-90 52.999 104)" fill="#604AFF"/>
<ellipse cx="78.0464" cy="86.6152" rx="4.26667" ry="4.25153" transform="rotate(-90 78.0464 86.6152)" fill="white" stroke="#292D35" stroke-width="0.432426"/>
<ellipse cx="78.0464" cy="51.914" rx="4.26667" ry="4.25153" transform="rotate(-90 78.0464 51.914)" fill="white" stroke="#292D35" stroke-width="0.432426"/>
<ellipse cx="78.0464" cy="34.5639" rx="4.26667" ry="4.25153" transform="rotate(-90 78.0464 34.5639)" fill="white" stroke="#292D35" stroke-width="0.432426"/>
<ellipse cx="78.0464" cy="17.2133" rx="4.26667" ry="4.25153" transform="rotate(-90 78.0464 17.2133)" fill="white" stroke="#292D35" stroke-width="0.432426"/>
<ellipse cx="78.0464" cy="69.0478" rx="4.26667" ry="4.25153" transform="rotate(-90 78.0464 69.0478)" fill="white" stroke="#292D35" stroke-width="0.432426"/>
<ellipse cx="95.336" cy="86.6152" rx="4.26667" ry="4.25153" transform="rotate(-90 95.336 86.6152)" fill="white" stroke="#292D35" stroke-width="0.432426"/>
<ellipse cx="95.336" cy="51.914" rx="4.26667" ry="4.25153" transform="rotate(-90 95.336 51.914)" fill="white" stroke="#292D35" stroke-width="0.432426"/>
<ellipse cx="95.336" cy="34.5639" rx="4.26667" ry="4.25153" transform="rotate(-90 95.336 34.5639)" fill="white" stroke="#292D35" stroke-width="0.432426"/>
<ellipse cx="95.336" cy="17.2133" rx="4.26667" ry="4.25153" transform="rotate(-90 95.336 17.2133)" fill="white" stroke="#292D35" stroke-width="0.432426"/>
<ellipse cx="95.336" cy="69.0478" rx="4.26667" ry="4.25153" transform="rotate(-90 95.336 69.0478)" fill="white" stroke="#292D35" stroke-width="0.432426"/>
<ellipse cx="112.624" cy="86.6152" rx="4.26667" ry="4.25153" transform="rotate(-90 112.624 86.6152)" fill="white" stroke="#292D35" stroke-width="0.432426"/>
<ellipse cx="129.974" cy="86.6152" rx="4.26667" ry="4.25153" transform="rotate(-90 129.974 86.6152)" fill="white" stroke="#292D35" stroke-width="0.432426"/>
<ellipse cx="147.385" cy="86.6152" rx="4.26667" ry="4.25153" transform="rotate(-90 147.385 86.6152)" fill="white" stroke="#292D35" stroke-width="0.432426"/>
<ellipse cx="164.796" cy="86.6152" rx="4.26667" ry="4.25153" transform="rotate(-90 164.796 86.6152)" fill="white" stroke="#292D35" stroke-width="0.432426"/>
<ellipse cx="182.208" cy="86.6152" rx="4.26667" ry="4.25153" transform="rotate(-90 182.208 86.6152)" fill="white" stroke="#292D35" stroke-width="0.432426"/>
<ellipse cx="199.619" cy="86.6152" rx="4.26667" ry="4.25153" transform="rotate(-90 199.619 86.6152)" fill="white" stroke="#292D35" stroke-width="0.432426"/>
<ellipse cx="217.03" cy="86.6152" rx="4.26667" ry="4.25153" transform="rotate(-90 217.03 86.6152)" fill="white" stroke="#292D35" stroke-width="0.432426"/>
<ellipse cx="234.441" cy="86.6152" rx="4.26667" ry="4.25153" transform="rotate(-90 234.441 86.6152)" fill="white" stroke="#292D35" stroke-width="0.432426"/>
<ellipse cx="112.624" cy="51.914" rx="4.26667" ry="4.25153" transform="rotate(-90 112.624 51.914)" fill="white" stroke="#292D35" stroke-width="0.432426"/>
<ellipse cx="129.974" cy="51.914" rx="4.26667" ry="4.25153" transform="rotate(-90 129.974 51.914)" fill="white" stroke="#292D35" stroke-width="0.432426"/>
<ellipse cx="147.385" cy="51.914" rx="4.26667" ry="4.25153" transform="rotate(-90 147.385 51.914)" fill="white" stroke="#292D35" stroke-width="0.432426"/>
<ellipse cx="164.796" cy="51.914" rx="4.26667" ry="4.25153" transform="rotate(-90 164.796 51.914)" fill="white" stroke="#292D35" stroke-width="0.432426"/>
<ellipse cx="182.208" cy="51.914" rx="4.26667" ry="4.25153" transform="rotate(-90 182.208 51.914)" fill="white" stroke="#292D35" stroke-width="0.432426"/>
<ellipse cx="199.619" cy="51.914" rx="4.26667" ry="4.25153" transform="rotate(-90 199.619 51.914)" fill="white" stroke="#292D35" stroke-width="0.432426"/>
<ellipse cx="217.03" cy="51.914" rx="4.26667" ry="4.25153" transform="rotate(-90 217.03 51.914)" fill="white" stroke="#292D35" stroke-width="0.432426"/>
<ellipse cx="234.441" cy="51.914" rx="4.26667" ry="4.25153" transform="rotate(-90 234.441 51.914)" fill="white" stroke="#292D35" stroke-width="0.432426"/>
<ellipse cx="112.624" cy="34.5639" rx="4.26667" ry="4.25153" transform="rotate(-90 112.624 34.5639)" fill="white" stroke="#292D35" stroke-width="0.432426"/>
<ellipse cx="129.974" cy="34.5639" rx="4.26667" ry="4.25153" transform="rotate(-90 129.974 34.5639)" fill="white" stroke="#292D35" stroke-width="0.432426"/>
<ellipse cx="147.385" cy="34.5639" rx="4.26667" ry="4.25153" transform="rotate(-90 147.385 34.5639)" fill="white" stroke="#292D35" stroke-width="0.432426"/>
<ellipse cx="164.796" cy="34.5639" rx="4.26667" ry="4.25153" transform="rotate(-90 164.796 34.5639)" fill="white" stroke="#292D35" stroke-width="0.432426"/>
<ellipse cx="182.208" cy="34.5639" rx="4.26667" ry="4.25153" transform="rotate(-90 182.208 34.5639)" fill="white" stroke="#292D35" stroke-width="0.432426"/>
<ellipse cx="199.619" cy="34.5639" rx="4.26667" ry="4.25153" transform="rotate(-90 199.619 34.5639)" fill="white" stroke="#292D35" stroke-width="0.432426"/>
<ellipse cx="217.03" cy="34.5639" rx="4.26667" ry="4.25153" transform="rotate(-90 217.03 34.5639)" fill="white" stroke="#292D35" stroke-width="0.432426"/>
<ellipse cx="234.441" cy="34.5639" rx="4.26667" ry="4.25153" transform="rotate(-90 234.441 34.5639)" fill="white" stroke="#292D35" stroke-width="0.432426"/>
<ellipse cx="112.624" cy="17.2133" rx="4.26667" ry="4.25153" transform="rotate(-90 112.624 17.2133)" fill="white" stroke="#292D35" stroke-width="0.432426"/>
<ellipse cx="129.974" cy="17.2133" rx="4.26667" ry="4.25153" transform="rotate(-90 129.974 17.2133)" fill="white" stroke="#292D35" stroke-width="0.432426"/>
<ellipse cx="147.385" cy="17.2133" rx="4.26667" ry="4.25153" transform="rotate(-90 147.385 17.2133)" fill="white" stroke="#292D35" stroke-width="0.432426"/>
<ellipse cx="164.796" cy="17.2133" rx="4.26667" ry="4.25153" transform="rotate(-90 164.796 17.2133)" fill="white" stroke="#292D35" stroke-width="0.432426"/>
<ellipse cx="182.208" cy="17.2133" rx="4.26667" ry="4.25153" transform="rotate(-90 182.208 17.2133)" fill="white" stroke="#292D35" stroke-width="0.432426"/>
<ellipse cx="199.619" cy="17.2133" rx="4.26667" ry="4.25153" transform="rotate(-90 199.619 17.2133)" fill="white" stroke="#292D35" stroke-width="0.432426"/>
<ellipse cx="217.03" cy="17.2133" rx="4.26667" ry="4.25153" transform="rotate(-90 217.03 17.2133)" fill="white" stroke="#292D35" stroke-width="0.432426"/>
<ellipse cx="234.441" cy="17.2133" rx="4.26667" ry="4.25153" transform="rotate(-90 234.441 17.2133)" fill="white" stroke="#292D35" stroke-width="0.432426"/>
<ellipse cx="112.624" cy="69.0478" rx="4.26667" ry="4.25153" transform="rotate(-90 112.624 69.0478)" fill="white" stroke="#292D35" stroke-width="0.432426"/>
<ellipse cx="129.974" cy="69.0478" rx="4.26667" ry="4.25153" transform="rotate(-90 129.974 69.0478)" fill="white" stroke="#292D35" stroke-width="0.432426"/>
<ellipse cx="147.385" cy="69.0478" rx="4.26667" ry="4.25153" transform="rotate(-90 147.385 69.0478)" fill="white" stroke="#292D35" stroke-width="0.432426"/>
<ellipse cx="164.796" cy="69.0478" rx="4.26667" ry="4.25153" transform="rotate(-90 164.796 69.0478)" fill="white" stroke="#292D35" stroke-width="0.432426"/>
<ellipse cx="182.208" cy="69.0478" rx="4.26667" ry="4.25153" transform="rotate(-90 182.208 69.0478)" fill="white" stroke="#292D35" stroke-width="0.432426"/>
<ellipse cx="199.619" cy="69.0478" rx="4.26667" ry="4.25153" transform="rotate(-90 199.619 69.0478)" fill="white" stroke="#292D35" stroke-width="0.432426"/>
<ellipse cx="217.03" cy="69.0478" rx="4.26667" ry="4.25153" transform="rotate(-90 217.03 69.0478)" fill="white" stroke="#292D35" stroke-width="0.432426"/>
<ellipse cx="234.441" cy="69.0478" rx="4.26667" ry="4.25153" transform="rotate(-90 234.441 69.0478)" fill="white" stroke="#292D35" stroke-width="0.432426"/>
<rect x="360" y="0.000244141" width="104" height="100" transform="matrix(0 1 -1 0 360 -360)" fill="#FF84AC"/>
<path fill-rule="evenodd" clip-rule="evenodd" d="M323.581 67.3969C323.673 67.3978 323.765 67.3982 323.858 67.3982C339.282 67.3982 351.786 55.1236 351.786 39.9822C351.786 24.8407 339.282 12.5662 323.858 12.5662C309.775 12.5662 298.127 22.7988 296.207 36.1034C296.115 36.1025 296.022 36.1021 295.93 36.1021C280.506 36.1021 268.002 48.3767 268.002 63.5181C268.002 78.6596 280.506 90.9342 295.93 90.9342C310.013 90.9342 321.661 80.7015 323.581 67.3969ZM323.581 67.3969C323.763 66.1298 323.858 64.8348 323.858 63.5181C323.858 48.4675 311.504 36.2495 296.207 36.1034C296.024 37.3705 295.93 38.6655 295.93 39.9822C295.93 55.0328 308.284 67.2509 323.581 67.3969Z" fill="white"/>
<path d="M323.858 67.182C323.766 67.182 323.674 67.1816 323.583 67.1807L323.578 67.6131C323.671 67.614 323.765 67.6144 323.858 67.6144V67.182ZM351.569 39.9822C351.569 55.0005 339.166 67.182 323.858 67.182V67.6144C339.398 67.6144 352.002 55.2468 352.002 39.9822H351.569ZM323.858 12.7824C339.166 12.7824 351.569 24.9639 351.569 39.9822H352.002C352.002 24.7176 339.398 12.3499 323.858 12.3499V12.7824ZM296.421 36.1343C298.325 22.9375 309.881 12.7824 323.858 12.7824V12.3499C309.669 12.3499 297.928 22.6601 295.993 36.0725L296.421 36.1343ZM295.93 36.3183C296.022 36.3183 296.114 36.3187 296.205 36.3196L296.209 35.8872C296.116 35.8863 296.023 35.8859 295.93 35.8859V36.3183ZM268.218 63.5181C268.218 48.4998 280.621 36.3183 295.93 36.3183V35.8859C280.39 35.8859 267.786 48.2535 267.786 63.5181H268.218ZM295.93 90.7179C280.621 90.7179 268.218 78.5364 268.218 63.5181H267.786C267.786 78.7827 280.39 91.1504 295.93 91.1504V90.7179ZM323.367 67.366C321.463 80.5628 309.907 90.7179 295.93 90.7179V91.1504C310.119 91.1504 321.86 80.8402 323.795 67.4278L323.367 67.366ZM323.642 63.5181C323.642 64.8244 323.548 66.1091 323.367 67.366L323.795 67.4278C323.979 66.1505 324.074 64.8451 324.074 63.5181H323.642ZM296.205 36.3196C311.387 36.4646 323.642 48.5899 323.642 63.5181H324.074C324.074 48.3451 311.62 36.0343 296.209 35.8872L296.205 36.3196ZM296.146 39.9822C296.146 38.6759 296.24 37.3912 296.421 36.1343L295.993 36.0725C295.809 37.3499 295.714 38.6552 295.714 39.9822H296.146ZM323.583 67.1807C308.401 67.0357 296.146 54.9104 296.146 39.9822H295.714C295.714 55.1552 308.167 67.466 323.578 67.6131L323.583 67.1807Z" fill="#292D35"/>
<ellipse cx="323.521" cy="39.5238" rx="16.3023" ry="16.4982" transform="rotate(90 323.521 39.5238)" fill="#292D35"/>
<ellipse cx="294.757" cy="64.137" rx="16.1958" ry="16.3896" transform="rotate(90 294.757 64.137)" fill="#292D35"/>
<rect x="52.7571" y="51.7581" width="52.5161" height="51.5161" transform="rotate(-180 52.7571 51.7581)" fill="#FFC621" stroke="#292D35" stroke-width="0.483871"/>
<path d="M52.5176 51.5139L25.5358 25.9999L52.5176 0.485878L52.5176 51.5139Z" fill="white" stroke="#292D35" stroke-width="0.483871" stroke-miterlimit="5.71073" stroke-linejoin="bevel"/>
<path d="M-0.000976562 52L26.499 26L-0.000976563 0L-0.000976562 52Z" fill="#292D35"/>
<rect y="52" width="53" height="52" fill="#1AEF96"/>
<mask id="mask0_1_11834" style="mask-type:alpha" maskUnits="userSpaceOnUse" x="0" y="52" width="53" height="52">
<rect y="52" width="53" height="52" fill="#FF2B15"/>
</mask>
<g mask="url(#mask0_1_11834)">
<path fill-rule="evenodd" clip-rule="evenodd" d="M-2.14935 104.422L53.6919 49.1724L55.973 51.4778L0.131695 106.728L-2.14935 104.422ZM16.4719 104.185L53.6994 67.8124L55.9659 70.1321L18.7384 106.505L16.4719 104.185ZM35.0965 49.615L-2.83786 85.9879L-0.593258 88.3288L37.3411 51.9559L35.0965 49.615ZM35.5574 104.185L53.6999 86.4591L55.9664 88.7788L37.8239 106.505L35.5574 104.185ZM16.0081 49.6185L-2.84131 67.805L-0.589432 70.1389L18.2599 51.9525L16.0081 49.6185Z" fill="white"/>
<path d="M53.6919 49.1724L53.8456 49.0203L53.6936 48.8666L53.5399 49.0187L53.6919 49.1724ZM-2.14935 104.422L-2.30142 104.269L-2.45512 104.421L-2.30305 104.574L-2.14935 104.422ZM55.973 51.4778L56.125 51.6315L56.2787 51.4794L56.1267 51.3258L55.973 51.4778ZM0.131695 106.728L-0.0220025 106.88L0.130067 107.034L0.283765 106.882L0.131695 106.728ZM53.6994 67.8124L53.8541 67.6613L53.703 67.5066L53.5483 67.6577L53.6994 67.8124ZM16.4719 104.185L16.3208 104.031L16.1662 104.182L16.3173 104.336L16.4719 104.185ZM55.9659 70.1321L56.117 70.2868L56.2717 70.1357L56.1206 69.981L55.9659 70.1321ZM18.7384 106.505L18.5838 106.656L18.7349 106.811L18.8895 106.66L18.7384 106.505ZM-2.83786 85.9879L-2.9875 85.8318L-3.14356 85.9815L-2.99392 86.1375L-2.83786 85.9879ZM35.0965 49.615L35.2526 49.4653L35.1029 49.3093L34.9469 49.4589L35.0965 49.615ZM-0.593258 88.3288L-0.749322 88.4785L-0.599682 88.6345L-0.443618 88.4849L-0.593258 88.3288ZM37.3411 51.9559L37.4907 52.112L37.6468 51.9623L37.4972 51.8063L37.3411 51.9559ZM53.6999 86.4591L53.8545 86.308L53.7034 86.1533L53.5488 86.3044L53.6999 86.4591ZM35.5574 104.185L35.4063 104.03L35.2516 104.182L35.4027 104.336L35.5574 104.185ZM55.9664 88.7788L56.1175 88.9335L56.2721 88.7824L56.121 88.6277L55.9664 88.7788ZM37.8239 106.505L37.6692 106.656L37.8203 106.811L37.975 106.66L37.8239 106.505ZM-2.84131 67.805L-2.99143 67.6494L-3.14703 67.7995L-2.99691 67.9551L-2.84131 67.805ZM16.0081 49.6185L16.1637 49.4684L16.0135 49.3128L15.8579 49.4629L16.0081 49.6185ZM-0.589432 70.1389L-0.745029 70.2891L-0.594904 70.4447L-0.439307 70.2945L-0.589432 70.1389ZM18.2599 51.9525L18.4101 52.1081L18.5657 51.9579L18.4155 51.8024L18.2599 51.9525ZM53.5399 49.0187L-2.30142 104.269L-1.99728 104.576L53.844 49.3261L53.5399 49.0187ZM56.1267 51.3258L53.8456 49.0203L53.5382 49.3244L55.8193 51.6299L56.1267 51.3258ZM0.283765 106.882L56.125 51.6315L55.8209 51.3241L-0.020375 106.574L0.283765 106.882ZM-2.30305 104.574L-0.0220025 106.88L0.285392 106.576L-1.99566 104.27L-2.30305 104.574ZM53.5483 67.6577L16.3208 104.031L16.623 104.34L53.8505 67.967L53.5483 67.6577ZM56.1206 69.981L53.8541 67.6613L53.5448 67.9635L55.8113 70.2832L56.1206 69.981ZM18.8895 106.66L56.117 70.2868L55.8148 69.9775L18.5873 106.35L18.8895 106.66ZM16.3173 104.336L18.5838 106.656L18.8931 106.354L16.6266 104.034L16.3173 104.336ZM-2.68822 86.1439L35.2461 49.771L34.9469 49.4589L-2.9875 85.8318L-2.68822 86.1439ZM-0.437194 88.1792L-2.68179 85.8382L-2.99392 86.1375L-0.749322 88.4785L-0.437194 88.1792ZM37.1915 51.7999L-0.742898 88.1728L-0.443618 88.4849L37.4907 52.112L37.1915 51.7999ZM34.9404 49.7646L37.185 52.1056L37.4972 51.8063L35.2526 49.4653L34.9404 49.7646ZM53.5488 86.3044L35.4063 104.03L35.7085 104.34L53.851 86.6137L53.5488 86.3044ZM56.121 88.6277L53.8545 86.308L53.5452 86.6102L55.8117 88.9299L56.121 88.6277ZM37.975 106.66L56.1175 88.9335L55.8153 88.6242L37.6728 106.35L37.975 106.66ZM35.4027 104.336L37.6692 106.656L37.9785 106.354L35.712 104.034L35.4027 104.336ZM-2.69118 67.9606L16.1582 49.7741L15.8579 49.4629L-2.99143 67.6494L-2.69118 67.9606ZM-0.433835 69.9888L-2.68571 67.6549L-2.99691 67.9551L-0.745029 70.2891L-0.433835 69.9888ZM18.1098 51.7969L-0.739557 69.9833L-0.439307 70.2945L18.4101 52.1081L18.1098 51.7969ZM15.8525 49.7686L18.1043 52.1026L18.4155 51.8024L16.1637 49.4684L15.8525 49.7686Z" fill="#292D35"/>
</g>
</svg>
