<svg width="148" height="148" viewBox="0 0 148 148" fill="none" xmlns="http://www.w3.org/2000/svg">
<path d="M74.0003 92.4537C63.8136 92.4537 55.5312 84.1712 55.5312 73.9846C55.5312 63.798 63.8136 55.5156 74.0003 55.5156C84.1869 55.5156 92.4693 63.798 92.4693 73.9846C92.4539 84.1712 84.1714 92.4537 74.0003 92.4537ZM74.0003 63.2717C68.0865 63.2717 63.2718 68.0863 63.2718 74.0001C63.2718 79.9139 68.0865 84.7286 74.0003 84.7286C79.9141 84.7286 84.7288 79.9139 84.7288 74.0001C84.7288 68.0863 79.9141 63.2717 74.0003 63.2717Z" fill="#FF84AC"/>
<path d="M74.0314 106.526C71.8021 106.526 69.5728 106.294 67.3745 105.845C58.8753 104.08 51.5682 99.0949 46.8 91.8343C42.0318 84.5736 40.3908 75.8886 42.1556 67.374C43.6883 60.0049 47.7599 53.3635 53.5963 48.6572C59.3707 44.0129 66.6005 41.4585 73.9695 41.4585C76.1988 41.4585 78.4281 41.6907 80.6264 42.1397C89.1256 43.9045 96.4327 48.8894 101.201 56.1501C105.969 63.4108 107.61 72.0958 105.845 80.6104C104.313 87.9794 100.241 94.6208 94.4046 99.3271C88.6147 103.971 81.385 106.526 74.0314 106.526ZM73.9695 49.1991C62.3122 49.1991 52.1101 57.497 49.726 68.9375C46.9394 82.3133 55.5624 95.4723 68.9381 98.2589C70.6101 98.615 72.3285 98.7853 74.0159 98.7853C85.6732 98.7853 95.8753 90.4874 98.2594 79.0468C99.6063 72.5602 98.3523 65.9497 94.7297 60.4074C91.1071 54.8652 85.5339 51.0723 79.0473 49.7254C77.3753 49.3848 75.6569 49.1991 73.9695 49.1991Z" fill="#FF84AC"/>
<path d="M74.0455 120.134C72.6212 120.134 71.1814 120.072 69.7417 119.933C57.4651 118.803 46.3806 112.951 38.5007 103.476C30.6208 94.0019 26.9208 82.0195 28.0509 69.7584C29.1191 58.2404 34.4137 47.6048 42.9903 39.8488C51.5049 32.1236 62.4965 27.8818 73.9371 27.8818C75.3614 27.8818 76.8011 27.9437 78.2408 28.0831C90.5174 29.2132 101.602 35.0651 109.482 44.5396C117.362 54.014 121.062 65.9965 119.932 78.2731C118.863 89.791 113.569 100.427 104.992 108.183C96.4777 115.877 85.4861 120.134 74.0455 120.134ZM73.9371 35.6069C54.0128 35.6069 37.6028 50.5927 35.7605 70.4706C33.8099 91.5559 49.3685 110.288 70.4538 112.239C71.6459 112.347 72.8535 112.409 74.0455 112.409C93.9698 112.409 110.38 97.4232 112.222 77.5454C114.173 56.4601 98.6141 37.7279 77.5288 35.7772C76.3367 35.6534 75.1292 35.6069 73.9371 35.6069Z" fill="#FF84AC"/>
<path d="M74.0301 134.006C73.3334 134.006 72.6213 133.99 71.9091 133.975C63.8125 133.696 56.01 131.838 48.7184 128.448C41.6744 125.182 35.42 120.63 30.0945 114.933C24.769 109.236 20.682 102.672 17.9108 95.4267C15.0313 87.9183 13.7309 80.0074 14.0095 71.9108C14.5514 56.2593 21.0535 41.6605 32.3393 30.7928C43.5786 19.9559 58.3631 13.9802 73.9527 13.9802C74.6493 13.9802 75.3614 13.9957 76.0735 14.0112C84.1702 14.2898 91.9728 16.1476 99.2644 19.538C106.308 22.8045 112.563 27.356 117.888 33.053C123.214 38.7501 127.301 45.3141 130.072 52.5593C132.951 60.0677 134.252 67.9785 133.973 76.0752C133.431 91.7266 126.929 106.325 115.643 117.193C104.404 128.045 89.6196 134.006 74.0301 134.006ZM73.9527 21.7208C45.6531 21.7208 22.7254 43.8898 21.7501 72.1894C20.7438 101 43.3774 125.243 72.1723 126.25C72.7916 126.265 73.4108 126.281 74.0146 126.281C102.314 126.281 125.242 104.112 126.217 75.812C127.223 47.0016 104.59 22.758 75.7949 21.7518C75.1912 21.7363 74.5719 21.7208 73.9527 21.7208Z" fill="#FF84AC"/>
<path d="M74 148C64.0146 148 54.3234 146.049 45.1895 142.179C36.3807 138.448 28.4699 133.123 21.6736 126.326C14.8774 119.53 9.53642 111.619 5.82094 102.81C1.96612 93.6766 0 83.9854 0 74C0 64.0146 1.95064 54.3234 5.82094 45.1895C9.5519 36.3807 14.8774 28.4699 21.6736 21.6736C28.4699 14.8774 36.3807 9.53642 45.1895 5.82094C54.3234 1.96612 64.0146 0 74 0C83.9854 0 93.6766 1.95064 102.81 5.82094C111.619 9.5519 119.53 14.8774 126.326 21.6736C133.123 28.4699 138.464 36.3807 142.179 45.1895C146.034 54.3234 148 64.0146 148 74C148 83.9854 146.049 93.6766 142.179 102.81C138.448 111.619 133.123 119.53 126.326 126.326C119.53 133.123 111.619 138.464 102.81 142.179C93.6766 146.049 83.9854 148 74 148ZM74 7.72509C37.4644 7.72509 7.74059 37.4489 7.74059 73.9845C7.74059 110.52 37.4644 140.244 74 140.244C110.536 140.244 140.259 110.52 140.259 73.9845C140.259 37.4644 110.536 7.72509 74 7.72509Z" fill="#FF84AC"/>
</svg>
