<svg width="48" height="48" viewBox="0 0 48 48" fill="none" xmlns="http://www.w3.org/2000/svg">
<rect width="48" height="48" fill="#604AFF"/>
<path fill-rule="evenodd" clip-rule="evenodd" d="M38.5483 16.1122C38.7748 15.3946 38.5483 14.8729 37.5463 14.8729H34.2148C33.3744 14.8729 32.9863 15.3297 32.7599 15.8183C32.7599 15.8183 31.0461 19.9915 28.6528 22.6971C27.8767 23.4795 27.5211 23.7404 27.1006 23.7404C26.8741 23.7404 26.5827 23.4795 26.5827 22.7626V16.0784C26.5827 15.2311 26.3245 14.8398 25.6126 14.8398H20.3732C19.8554 14.8398 19.5322 15.2311 19.5322 15.6223C19.5322 16.4372 20.7288 16.6332 20.8579 18.9151V23.8733C20.8579 24.9491 20.6671 25.1456 20.2434 25.1456C19.1117 25.1456 16.3628 20.94 14.7139 16.1478C14.3933 15.1986 14.0676 14.8398 13.2266 14.8398H9.86318C8.89303 14.8398 8.73145 15.296 8.73145 15.7852C8.73145 16.6656 9.86318 21.099 14.0027 26.967C16.7515 30.9748 20.6645 33.1288 24.1895 33.1288C26.3245 33.1288 26.5827 32.6396 26.5827 31.8247V28.7928C26.5827 27.815 26.7768 27.6521 27.4562 27.6521C27.941 27.6521 28.8144 27.9123 30.7871 29.8361C33.0506 32.118 33.4387 33.1613 34.7002 33.1613H38.0311C39.0012 33.1613 39.4542 32.6721 39.1953 31.7267C38.9045 30.7814 37.8046 29.4124 36.3815 27.7825C35.6054 26.8703 34.4412 25.8594 34.0856 25.3702C33.6009 24.7181 33.73 24.4573 34.0856 23.8708C34.0532 23.8708 38.1284 18.0677 38.5483 16.1096" fill="#F2F2F2"/>
</svg>
