<svg width="48" height="48" viewBox="0 0 48 48" fill="none" xmlns="http://www.w3.org/2000/svg">
<rect width="48" height="48" fill="#FE5101"/>
<path d="M21.2849 28.0714L28.3284 24L21.2849 19.9286V28.0714ZM36.9734 17.445C37.1499 18.0829 37.272 18.9379 37.3535 20.0236C37.4485 21.1093 37.4892 22.0457 37.4892 22.86L37.5706 24C37.5706 26.9721 37.3534 29.1571 36.9734 30.555C36.6342 31.7764 35.847 32.5636 34.6256 32.9029C33.9877 33.0793 32.8206 33.2014 31.0292 33.2829C29.2649 33.3779 27.6499 33.4186 26.157 33.4186L23.9992 33.5C18.3127 33.5 14.7706 33.2829 13.3727 32.9029C12.1513 32.5636 11.3642 31.7764 11.0249 30.555C10.8484 29.9171 10.7263 29.0621 10.6449 27.9764C10.5499 26.8907 10.5092 25.9543 10.5092 25.14L10.4277 24C10.4277 21.0279 10.6449 18.8429 11.0249 17.445C11.3642 16.2236 12.1513 15.4364 13.3727 15.0971C14.0106 14.9207 15.1777 14.7986 16.9692 14.7171C18.7334 14.6221 20.3484 14.5814 21.8413 14.5814L23.9992 14.5C29.6856 14.5 33.2277 14.7171 34.6256 15.0971C35.847 15.4364 36.6342 16.2236 36.9734 17.445Z" fill="#F2F2F2"/>
</svg>
