<svg width="109" height="110" viewBox="0 0 109 110" fill="none" xmlns="http://www.w3.org/2000/svg">
<g filter="url(#filter0_d_1_28864)">
<path d="M109 53.0065L90.387 62.2289L101.899 79.5097L81.1645 78.1774L82.5097 98.9118L65.216 87.3999L55.9936 106L46.7711 87.3999L29.4903 98.9118L30.8226 78.1774L10.0882 79.5097L21.6001 62.2289L3 53.0065L21.6001 43.784L10.0882 26.4903L30.8226 27.8226L29.4903 7.10116L46.7711 18.6001L55.9936 0L65.216 18.6001L82.5097 7.10116L81.1645 27.8226L101.899 26.4903L90.387 43.784L109 53.0065Z" fill="#FE5101"/>
<path d="M89.9708 62.5061L100.923 78.9459L81.1965 77.6785L80.6287 77.642L80.6655 78.2098L81.9453 97.9354L65.493 86.9837L65.0203 86.669L64.768 87.1778L55.9936 104.874L47.219 87.1778L46.9667 86.6688L46.4939 86.9837L30.054 97.9354L31.3216 78.2095L31.358 77.642L30.7905 77.6785L11.0645 78.9459L22.0162 62.5061L22.3312 62.0333L21.8222 61.781L4.12557 53.0065L21.8222 44.232L22.331 43.9797L22.0163 43.507L11.0641 27.054L30.7905 28.3215L31.358 28.358L31.3216 27.7905L30.054 8.07688L46.4941 19.0164L46.9668 19.3309L47.219 18.8222L55.9936 1.12557L64.768 18.8222L65.0202 19.3308L65.4928 19.0165L81.9453 8.07688L80.6655 27.7902L80.6287 28.358L81.1965 28.3215L100.923 27.054L89.9707 43.507L89.656 43.9798L90.165 44.232L107.874 53.0065L90.165 61.7809L89.6558 62.0332L89.9708 62.5061Z" stroke="#292D35"/>
</g>
<defs>
<filter id="filter0_d_1_28864" x="0" y="0" width="109" height="110" filterUnits="userSpaceOnUse" color-interpolation-filters="sRGB">
<feFlood flood-opacity="0" result="BackgroundImageFix"/>
<feColorMatrix in="SourceAlpha" type="matrix" values="0 0 0 0 0 0 0 0 0 0 0 0 0 0 0 0 0 0 127 0" result="hardAlpha"/>
<feOffset dx="-3" dy="4"/>
<feComposite in2="hardAlpha" operator="out"/>
<feColorMatrix type="matrix" values="0 0 0 0 0.160784 0 0 0 0 0.176471 0 0 0 0 0.207843 0 0 0 1 0"/>
<feBlend mode="normal" in2="BackgroundImageFix" result="effect1_dropShadow_1_28864"/>
<feBlend mode="normal" in="SourceGraphic" in2="effect1_dropShadow_1_28864" result="shape"/>
</filter>
</defs>
</svg>
