<svg width="98" height="43" viewBox="0 0 98 43" fill="none" xmlns="http://www.w3.org/2000/svg">
<path d="M2.96289 8.1986C11.5244 3.91782 21.3091 2.0832 30.788 2.69474C39.9611 3.30628 48.2168 7.89283 56.4726 11.5621C69.315 15.2313 83.0746 14.314 94.9996 8.1986" stroke="#FF84AC" stroke-width="4.58655" stroke-miterlimit="10" stroke-linecap="round"/>
<path d="M2.96289 21.041C11.2187 17.3718 20.086 14.9256 29.2591 15.5371C38.1264 16.1487 46.0765 19.5121 53.7207 23.4872C67.1746 28.3795 82.4631 27.4622 94.9996 21.041" stroke="#FF84AC" stroke-width="4.58655" stroke-miterlimit="10" stroke-linecap="round"/>
<path d="M2.96289 34.1894C12.4418 29.297 23.1437 27.4624 33.8457 28.9913C41.7957 30.2144 48.2168 33.8836 55.2496 36.9413C68.0919 41.8336 82.7688 39.999 94.9996 34.1894" stroke="#FF84AC" stroke-width="4.58655" stroke-miterlimit="10" stroke-linecap="round"/>
</svg>
