<svg width="436" height="297" viewBox="0 0 436 297" fill="none" xmlns="http://www.w3.org/2000/svg">
<path d="M400.476 206.589C391.189 256.03 297.774 279.975 191.83 260.073C85.8852 240.171 7.52928 183.957 16.817 134.517C26.1046 85.0758 119.519 61.13 225.463 81.0322C331.408 100.934 409.764 157.148 400.476 206.589ZM39.9324 138.859C31.7639 182.342 100.678 231.782 193.856 249.286C287.034 266.79 369.192 245.73 377.361 202.246C385.529 158.763 316.615 109.323 223.437 91.8194C130.259 74.3154 48.1009 95.3758 39.9324 138.859Z" fill="#FF84AC" stroke="#292D35" stroke-width="3"/>
<path d="M418.197 161.593C408.909 211.033 315.495 234.979 209.55 215.077C103.606 195.175 25.25 138.961 34.5377 89.5205C43.8253 40.0797 137.24 16.1339 243.184 36.0361C349.129 55.9382 427.485 112.152 418.197 161.593ZM57.6531 93.8628C49.4846 137.346 118.399 186.786 211.577 204.29C304.755 221.794 386.913 200.733 395.081 157.25C403.25 113.767 334.336 64.3273 241.158 46.8233C147.979 29.3193 65.8216 50.3797 57.6531 93.8628Z" fill="#FFC621" stroke="#292D35" stroke-width="3"/>
</svg>
