<svg width="1440" height="503" viewBox="0 0 1440 503" fill="none" xmlns="http://www.w3.org/2000/svg">
<g clip-path="url(#clip0_1_28696)">
<mask id="mask0_1_28696" style="mask-type:alpha" maskUnits="userSpaceOnUse" x="-321" y="-20" width="1920" height="850">
<rect x="-321" y="-20" width="1920" height="850" fill="#D9D9D9"/>
</mask>
<g mask="url(#mask0_1_28696)">
<path fill-rule="evenodd" clip-rule="evenodd" d="M1146.52 47.2534C1145.56 47.2534 1144.6 47.2534 1143.77 47.15C1138.56 46.6329 1134.86 44.668 1133.08 41.2554C1124.72 26.7774 1156.66 -10.9688 1165.43 -21H1170.37C1158.17 -7.45273 1129.79 28.0183 1136.78 40.0144C1138.15 42.2895 1140.62 43.5305 1144.46 43.9441C1165.16 46.2193 1200.52 14.0574 1216.01 -14.0712C1217.25 -16.4498 1218.34 -18.7249 1219.3 -20.8966H1223.55C1222.32 -17.8976 1220.95 -15.1054 1219.71 -12.8303C1212.17 0.820404 1199.29 16.436 1185.86 27.9149C1167.76 43.5305 1154.74 47.2534 1146.52 47.2534ZM-186.54 388.417C-155.698 431.23 -122.663 475.285 -90.4505 507.447C-54.948 542.711 -24.1061 559.878 3.99429 559.878H4.81674C32.7801 559.568 57.4536 542.608 80.208 508.274C128.047 436.194 184.659 392.14 244.013 381.075C284.587 373.525 326.258 380.971 367.792 403.412C399.73 420.682 422.485 426.37 437.015 420.889C458.535 412.823 459.769 382.729 461.14 347.982L461.15 347.722C462.655 309.625 464.361 266.446 494.586 246.636C508.705 237.432 527.621 234.019 552.432 236.088C617.405 241.672 679.226 234.226 731.178 214.784C780.525 196.273 818.769 168.041 841.66 133.087C863.455 99.8912 869.761 62.4553 860.166 25.0193C856.19 9.40376 849.474 -5.90155 840.29 -20.8966H835.629C867.705 30.19 869.487 83.9654 838.096 131.743C815.616 166.076 778.057 193.791 729.533 211.992C678.267 231.227 617.131 238.466 552.98 232.985C527.347 230.814 506.786 234.537 491.982 244.257C460.544 264.792 458.698 308.366 457.063 346.942L457.028 347.775C455.794 380.144 454.56 410.754 435.233 417.993C422.073 422.957 400.827 417.27 370.122 400.723C327.492 377.765 284.724 370.113 242.916 377.869C182.329 389.244 124.758 433.816 76.507 506.723C54.438 539.919 30.9981 556.258 4.81674 556.568H3.99429C-55.6334 556.568 -121.018 472.7 -182.976 386.659C-220.946 334.228 -267.003 298.033 -320.463 278.798V282.211C-268.648 301.342 -223.687 336.917 -186.54 388.417ZM1382.56 233.296C1349.39 242.46 1329.68 266.284 1302.32 299.358L1301.96 299.791C1288.66 315.924 1273.45 334.228 1254.39 353.67C1192.46 416.417 1130.12 393.399 1026.83 355.266L1026.71 355.221C973.39 335.469 906.908 310.96 824.8 293.172C705.408 267.319 625.767 268.663 581.355 297.309C540.643 323.576 527.758 372.077 540.643 449.948C551.884 517.478 619.05 569.495 740.225 604.656C854.408 637.749 989.564 647.159 1059.88 649.952C1182.15 654.605 1289.48 668.876 1379.13 692.145C1450.69 710.759 1511.14 735.165 1558.7 764.741C1574.33 774.462 1587.62 784.08 1598.73 793.387V788.837C1588.17 780.357 1575.97 771.463 1561.72 762.57C1513.74 732.683 1452.88 708.07 1380.78 689.352C1290.72 665.981 1182.84 651.71 1060.16 646.953C989.976 644.264 855.368 634.853 741.733 601.864C622.066 567.22 555.722 516.03 544.756 449.742C532.008 373.008 544.482 325.438 584.096 299.894C627.412 271.973 705.819 270.732 823.703 296.378C905.537 314.166 971.745 338.571 1024.93 358.22C1077.43 377.662 1118.96 392.967 1155.97 395.656C1196.14 398.552 1227.53 386.245 1257.68 355.738C1276.78 336.39 1291.94 318.066 1305.33 301.887L1305.33 301.885L1305.52 301.652C1332.53 268.87 1352.13 245.188 1384.07 236.398C1417.79 227.091 1463.43 234.95 1536.91 262.665C1559.25 271.145 1579.81 280.452 1598.73 290.277V286.347C1580.36 276.833 1560.35 267.939 1538.69 259.77C1463.98 231.641 1417.38 223.678 1382.56 233.296ZM-14.0996 919.863C-49.6021 880.048 -90.0392 834.96 -151.997 803.522C-212.036 773.014 -268.511 760.398 -320.463 765.465V762.363C-312.786 761.639 -305.11 761.225 -297.297 761.225C-251.103 761.225 -201.618 774.462 -149.667 800.833C-87.0236 832.685 -46.4493 877.98 -10.6727 918.001L-10.6159 918.065L-10.6155 918.065C29.249 962.61 63.6472 1001.05 116.396 1007.04C160.534 1012.11 213.856 994.528 284.313 951.714C331.878 922.862 371.356 896.594 406.31 873.326C480.467 823.894 534.064 788.216 593.966 776.531C655.375 764.535 722.268 776.944 824.937 819.448C907.594 853.678 1006.15 877.256 1095.11 884.081C1180.1 890.596 1244.25 880.772 1266.73 857.711C1282.08 841.888 1285.37 812.105 1213.27 759.881C1125.64 696.455 1025.56 688.749 919.599 680.589L919.245 680.562L918.16 680.478C847.491 675.024 774.389 669.381 700.336 646.849C616.172 621.306 542.974 577.045 476.904 511.48C429.338 464.323 373.823 441.986 316.663 446.846C277.596 450.155 239.078 465.771 202.205 493.176C164.783 520.994 131.2 559.464 102.277 607.552C80.071 644.574 54.9862 663.499 25.6522 665.464L25.6492 665.464C24.0053 665.567 22.3614 665.671 20.7175 665.671C-6.28635 665.671 -36.9911 651.089 -72.9048 621.306C-106.488 593.384 -141.442 555.017 -175.163 517.995C-224.099 464.22 -274.268 409.203 -320.463 386.245V382.419C-305.933 389.348 -290.306 399.793 -273.172 414.167C-240.136 441.468 -205.456 479.525 -171.873 516.444C-104.706 590.282 -35.0721 666.601 25.1039 662.568C52.9301 660.707 76.7812 642.299 98.4391 606.414C127.499 558.016 161.494 519.236 199.189 491.107C236.748 463.289 276.088 447.363 316.114 443.95C374.92 438.883 431.532 461.634 480.056 509.722C545.715 574.769 618.228 618.824 701.844 644.16C775.727 666.601 848.925 672.289 919.656 677.667C1026.44 685.836 1127.32 693.592 1216.01 757.813C1290.17 811.485 1286.19 842.819 1269.88 859.676C1257.96 871.982 1235.75 880.565 1204.09 885.322C1174.07 889.873 1136.23 890.493 1094.56 887.287C1005.05 880.462 905.949 856.78 822.881 822.343C721.171 780.253 655.101 767.844 594.925 779.633C535.983 791.112 482.661 826.583 408.914 875.705C373.96 898.973 334.345 925.24 286.78 954.196C223.315 992.77 173.282 1011.07 131.2 1011.07C125.991 1011.07 120.782 1010.87 115.711 1010.25C61.1546 1003.94 26.2005 964.951 -14.0996 919.863ZM1350.62 1328.14C1278.26 1318.22 1269.61 1281.11 1258.65 1234.07L1258.64 1234.04L1258.59 1233.82C1246.27 1181.33 1230.94 1116.07 1120.33 1064.02C1064.82 1037.96 1011.63 1021.62 957.626 1014.07C909.375 1007.35 861.399 1007.76 811.229 1015.42C718.603 1029.6 631.12 1067.27 546.359 1103.77L546.357 1103.77L544.756 1104.46L544.094 1104.74C464.522 1139.09 382.213 1174.62 293.634 1192.15C245.932 1201.67 200.423 1205.18 154.503 1203.11C102.962 1200.74 52.2447 1191.33 -0.39212 1174.26C-92.3695 1144.48 -183.799 1134.14 -272.075 1143.44C-288.387 1145.2 -304.562 1147.58 -320.6 1150.68V1153.89C-304.288 1150.79 -287.976 1148.3 -271.39 1146.55C-183.799 1137.24 -93.192 1147.58 -1.89996 1177.05C62.9366 1198.05 122.975 1206.73 179.587 1206.73C316.116 1206.73 432.671 1156.47 546.473 1107.4L546.812 1107.25L547.006 1107.17L547.008 1107.16C635.76 1068.83 719.458 1032.68 812.052 1018.52C861.673 1010.87 909.101 1010.45 956.803 1017.18C1010.4 1024.62 1063.17 1040.86 1118.14 1066.71L1118.16 1066.72C1166.82 1089.57 1227.39 1118.02 1254.67 1234.55C1260.29 1258.85 1265.22 1279.85 1278.24 1296.7C1292.64 1315.42 1315.53 1326.38 1349.93 1331.14C1451.78 1345.21 1512.37 1367.44 1540.47 1401.15C1547.19 1409.12 1552.12 1417.8 1555.41 1427.01H1559.66C1556.23 1417.18 1551.16 1408.08 1543.9 1399.5C1515.11 1365.06 1453.7 1342.31 1350.62 1328.14ZM1271.25 1362.37C1185.03 1352.65 1176.95 1333.11 1159.4 1290.5L1159.32 1290.31C1143.97 1253.18 1120.73 1196.98 1030.28 1115.52C908.416 1005.7 779.154 1074.36 629.468 1153.89C477.726 1234.55 305.697 1325.87 95.6975 1260.1C15.2344 1234.86 -65.914 1222.45 -145.692 1222.97C-205.045 1223.38 -263.851 1231.04 -320.463 1245.72V1249.03C-263.851 1234.24 -205.182 1226.59 -145.692 1226.18C-66.4623 1225.56 14.1378 1238.07 94.0526 1263.09C188.634 1292.77 284.176 1293.29 385.885 1264.85C474.586 1240 554.156 1197.78 631.118 1156.94L631.119 1156.94L631.798 1156.58L631.915 1156.52C705.892 1117.24 775.761 1080.15 841.112 1066.92C913.351 1052.23 972.43 1068.37 1027.12 1117.69C1117.18 1198.87 1140.21 1254.72 1155.43 1291.64C1172.97 1334.24 1181.88 1355.65 1270.71 1365.68C1322.66 1371.58 1355.14 1386.05 1367.34 1408.7C1370.36 1414.39 1372.14 1420.59 1372.83 1427.32H1376.94C1376.39 1420.18 1374.47 1413.56 1371.18 1407.56C1358.3 1383.57 1324.71 1368.47 1271.25 1362.37ZM692.522 1224.21C755.166 1203.53 806.295 1202.91 844.402 1222.04C931.033 1265.58 976.816 1338.79 1016.98 1403.32C1021.91 1411.39 1026.85 1419.25 1031.78 1426.9H1027.26C1024.65 1422.86 1022.09 1418.74 1019.5 1414.59C1017.46 1411.31 1015.39 1408 1013.28 1404.67L1013.23 1404.6C973.081 1340.39 927.574 1267.63 841.934 1224.52C805.061 1205.91 755.303 1206.73 694.03 1226.9C644.683 1243.14 587.934 1271.88 525.154 1312.32C462.236 1352.86 406.035 1397.12 370.122 1427.01H364.639C400.552 1397.12 458.124 1351.62 522.549 1310.04C585.604 1269.51 642.764 1240.55 692.522 1224.21ZM734.879 1331.66C717.059 1322.14 694.031 1322.35 666.478 1332.28C644.821 1340.14 620.284 1354 593.555 1373.54C568.059 1392.26 545.167 1412.63 530.089 1427.01H535.435C578.202 1386.78 676.211 1304.15 732.412 1334.14C768.736 1353.58 789.983 1392.16 808.351 1427.01H812.738C794.095 1391.54 772.575 1351.82 734.879 1331.66ZM58.5685 1328.55L60.1951 1328.87C144.496 1345.1 217.283 1359.17 223.04 1387.5C225.234 1398.98 215.775 1412.01 194.255 1427.01H188.223C210.978 1412.01 221.121 1399.08 218.928 1388.02C213.719 1361.75 138.602 1347.27 59.0984 1331.97L57.602 1331.68C22.7019 1324.94 -13.3278 1317.99 -45.6269 1309.63C-125.679 1288.95 -218.89 1306.43 -282.904 1324.73C-296.2 1328.56 -308.811 1332.59 -320.463 1336.52V1333.11C-309.222 1329.28 -297.16 1325.45 -284.412 1321.83C-219.712 1303.32 -125.542 1285.64 -44.2562 1306.63C-11.9992 1314.88 23.8458 1321.82 58.5685 1328.55ZM8.24359 1374.16C-18.8973 1370.65 -51.9324 1370.85 -82.3631 1374.78C-138.701 1382.02 -248.909 1405.19 -320.463 1420.8V1424.01C-248.909 1408.39 -138.016 1385.12 -81.5406 1377.78C-51.5211 1373.95 -19.0344 1373.64 7.69528 1377.16C46.3505 1382.23 59.9209 1392.88 64.5815 1401.05C68.8308 1408.39 67.7342 1417.08 61.4287 1426.9H66.0893C72.1206 1416.77 72.806 1407.67 68.2825 1399.81C59.0985 1383.88 30.5869 1377.06 8.24359 1374.16ZM-243.563 1107.97C-181.07 1108.69 -111.268 1118.02 -49.336 1126.31L-46.4494 1126.69C43.3348 1138.79 114.066 1148.3 122.838 1126.38C135.998 1093.5 93.2302 1066.3 22.2253 1021.31L20.7786 1020.39C-29.8308 988.286 -92.7373 948.376 -159.948 891.217C-210.94 847.99 -261.794 828.341 -310.867 833.098C-313.883 833.408 -317.036 833.822 -320.463 834.339V837.545C-317.173 837.028 -313.746 836.511 -310.319 836.201C-262.617 831.65 -213.133 850.885 -162.963 893.389C-95.1069 951.071 -31.8742 991.21 19.014 1023.51L19.6208 1023.9L19.649 1023.92C89.2664 1068.06 131.335 1094.74 119 1125.66C111.353 1144.82 39.0769 1135.14 -44.6898 1123.92L-45.6269 1123.8C-136.508 1111.49 -243.289 1097.11 -320.463 1109.63V1112.83C-298.531 1109.21 -273.035 1107.66 -243.563 1107.97ZM-3.27072 1076.85C-7.10883 1086.67 -27.1218 1091.53 -62.7613 1091.53C-84.4192 1091.53 -111.971 1089.77 -145.281 1086.15C-212.173 1078.81 -282.082 1066.3 -320.463 1058.13V1054.92C-282.493 1062.99 -212.173 1075.71 -144.869 1082.95C-61.6647 1092.05 -12.866 1089.57 -7.38297 1075.91C-1.76291 1061.95 -40.5551 1033 -111.149 998.354C-171.736 968.571 -243.975 940.649 -282.767 931.755C-295.378 928.86 -308.126 926.791 -320.6 925.55V922.448C-307.715 923.689 -294.555 925.757 -281.533 928.756C-242.467 937.753 -169.817 965.882 -108.819 995.769C-65.6399 1016.87 5.22794 1055.44 -3.27072 1076.85ZM-239.314 1035.48C-222.865 1035.48 -213.681 1033.1 -211.899 1028.34C-208.061 1018.83 -235.476 1003.01 -259.19 991.425C-279.614 981.394 -302.917 971.88 -320.6 966.089V969.502C-303.328 975.293 -280.985 984.497 -261.383 994.114C-230.952 1009.01 -213.544 1021.83 -215.874 1027.52C-219.575 1036.72 -274.542 1031.55 -320.6 1023.79V1026.9C-306.755 1029.17 -291.266 1031.45 -276.187 1033.1C-261.109 1034.65 -248.909 1035.48 -239.314 1035.48ZM146.415 953.886C142.44 953.886 138.602 953.576 134.901 952.852C101.318 946.647 74.5881 928.653 57.5908 901.041C40.4564 872.913 34.6992 836.614 41.1417 795.972C47.0359 759.364 64.1704 723.065 91.0371 691.007C186.578 576.734 265.945 514.065 326.943 504.758C346.545 501.759 364.502 504.344 379.991 512.514C438.083 542.957 475.975 572.593 509.394 598.73L510.624 599.692L510.923 599.926C562.596 640.354 603.459 672.325 692.934 690.8C749.546 702.486 776.276 713.241 774.494 723.789C773.123 731.959 753.932 738.474 717.333 743.231C681.831 747.781 630.565 750.574 569.155 751.194C522.824 751.711 474.71 765.258 421.936 792.87C375.879 817.069 332.289 848.61 293.771 876.532C236.885 917.794 187.127 953.886 146.415 953.886ZM94.601 692.662C68.1455 724.306 51.1482 760.191 45.3911 796.386C39.0856 836.407 44.7057 872.189 61.5659 899.8C77.8779 926.585 103.648 943.958 135.998 949.956C139.425 950.577 142.989 950.887 146.553 950.887C185.48 950.887 234.688 915.212 290.885 874.469L290.887 874.468L290.887 874.468L290.893 874.464C329.411 846.439 373.138 814.794 419.606 790.492C473.065 762.57 522.001 748.712 569.155 748.195C630.428 747.575 681.42 744.782 716.648 740.232C762.02 734.338 769.833 727.202 770.519 723.479C772.438 711.69 716.237 698.763 691.974 693.799C601.231 674.978 559.971 642.713 507.883 601.864L507.319 601.423C473.874 575.264 436.002 545.642 377.798 515.099C367.106 509.515 355.318 506.723 342.433 506.723C337.772 506.723 332.838 507.137 327.903 507.86C268.138 516.961 189.594 579.113 94.601 692.662ZM931.856 813.036C975.172 820.999 1048.51 832.685 1112.79 839.717C1148.3 843.543 1175.99 845.508 1196.14 845.508C1219.71 845.508 1232.87 842.819 1236.16 837.545C1239.59 831.857 1231.91 824.205 1212.72 813.967C1210.12 812.209 1156.8 776.427 1091.55 747.161C1052.34 729.581 1016.57 717.791 985.178 712.104C945.563 704.865 912.939 707.45 887.855 719.549C841.934 741.783 821.922 758.64 825.074 772.601C828.501 788.113 859.48 799.799 931.856 813.036ZM890.048 722.135C905.126 714.896 923.083 711.173 943.918 711.173C956.392 711.173 969.826 712.517 984.218 715.103C1015.2 720.687 1050.56 732.373 1089.36 749.746C1151.75 777.718 1203.19 811.752 1209.36 815.837L1209.37 815.837C1209.74 816.086 1209.95 816.224 1209.98 816.242L1210.12 816.345C1232.6 828.341 1233.56 833.926 1232.19 836.201C1222.04 853.057 1051.66 831.754 932.678 809.933C883.605 800.936 832.887 789.354 829.049 771.877C826.445 759.674 846.321 743.335 890.048 722.135ZM1061.67 801.66C1037.27 798.971 1009.3 794.525 992.854 791.526C969.14 787.182 953.102 782.735 951.32 775.29C949.95 769.498 957.489 762.983 975.72 754.193C993.265 745.61 1019.86 749.126 1054.4 764.638C1078.94 775.6 1099.09 789.044 1100.6 790.078C1106.08 792.973 1111.97 796.8 1109.92 800.212C1108.82 802.074 1105.67 803.832 1093.6 803.832C1086.48 803.832 1076.33 803.211 1061.67 801.66ZM997.789 752.849C990.524 752.849 983.807 754.09 978.05 756.882C962.149 764.535 954.473 770.636 955.296 774.773C956.666 780.874 975.446 785.114 993.677 788.423C1054.95 799.695 1103.47 803.211 1106.08 798.971C1106.08 798.971 1106.9 797.42 1098.13 792.663L1097.99 792.56C1097.98 792.552 1097.95 792.533 1097.9 792.501L1097.7 792.371L1097.7 792.369C1093.16 789.379 1037.7 752.849 997.789 752.849ZM1378.58 366.079C1401.06 342.915 1429.58 330.815 1463.3 330.091C1490.99 329.471 1535.95 336.71 1598.18 371.871V375.8C1558.56 353.36 1508.8 332.263 1463.02 333.194C1430.53 333.918 1403.12 345.603 1381.46 367.941C1361.21 388.794 1346.83 407.689 1334.1 424.42L1334.03 424.509C1312.92 452.327 1297.57 472.389 1270.84 481.076C1243.15 490.073 1204.64 485.937 1141.99 467.425C1104.84 456.464 1061.12 440.538 1014.92 423.578L1014.65 423.477C888.332 377.276 745.242 324.939 670.59 349.947C648.521 357.289 633.991 370.837 626.041 391.313C615.486 419.028 619.598 443.95 638.515 465.564C666.478 497.416 725.695 522.959 819.591 543.435C893.063 559.568 987.782 572.494 1117.59 584.284C1245.76 595.866 1378.45 626.787 1490.98 671.255C1532.38 687.594 1568.57 704.761 1598.31 721.928V726.064C1568.16 708.381 1531.01 690.593 1489.2 674.047C1377.08 629.786 1244.94 598.968 1117.32 587.386C987.371 575.597 892.378 562.67 818.632 546.537C723.776 525.854 663.737 500.001 635.225 467.425C615.623 444.985 611.374 419.131 622.34 390.589C630.427 369.492 646.191 354.807 669.22 347.155C745.571 321.508 889.774 374.249 1016.98 420.786L1018.03 421.171C1063.84 437.884 1107.05 453.651 1143.77 464.53C1270.56 502.067 1289.48 477.252 1330.88 422.966L1330.88 422.957C1331.72 421.873 1332.56 420.778 1333.4 419.674L1333.4 419.673C1345.66 403.719 1359.48 385.713 1378.58 366.079ZM1457.13 410.548C1433 413.65 1415.18 427.921 1404.08 452.948C1370.94 527.439 1293.47 522.451 1242.07 519.142L1241.92 519.133C1213.96 517.271 1193.67 516.03 1191.2 528.13C1188.05 543.435 1199.15 555.224 1226.57 565.049C1250.97 573.839 1286.06 580.664 1326.63 588.42C1411.62 604.76 1520.46 625.753 1598.45 679.631V675.392C1520.04 622.443 1412.03 601.657 1327.59 585.421L1327.46 585.396C1246.93 569.897 1188.87 558.724 1195.18 528.543C1196.96 519.753 1213.13 520.374 1241.51 522.235L1242.46 522.295C1268.61 523.94 1300.82 525.967 1331.29 518.202C1367.75 508.895 1392.84 487.902 1407.92 453.982C1418.47 430.196 1435.33 416.546 1457.81 413.65C1500.17 408.066 1555.96 440.228 1598.59 471.045V466.702C1597.15 465.613 1595.64 464.57 1594.12 463.512C1593.33 462.962 1592.53 462.408 1591.74 461.841C1536.36 423.371 1491.12 406.101 1457.13 410.548ZM1461.65 493.072C1475.36 484.902 1493.18 483.765 1514.29 489.556C1530.87 494.106 1549.65 503 1570.08 515.823C1580.36 522.338 1590.09 529.164 1598.59 535.679V540.126C1561.72 511.79 1500.99 473.527 1464.12 495.347C1453.97 501.345 1449.73 509.825 1451.23 520.477C1454.11 540.229 1476.46 566.91 1514.01 595.762C1540.33 615.928 1571.04 634.543 1598.59 647.263V650.986C1536.36 622.754 1453.15 562.153 1447.26 520.994C1445.61 509.101 1450.41 499.691 1461.65 493.072ZM1126.23 521.925C1126.18 521.902 1125.92 521.761 1125.45 521.508L1125.45 521.506L1125.44 521.505C1117.17 517.061 1045.14 478.378 962.698 442.192C845.361 390.485 763.802 368.044 720.486 375.283C707.053 377.559 697.183 382.729 691.289 390.796C669.22 420.786 690.055 451.707 751.465 480.249C806.021 505.585 893.201 528.957 984.63 542.711C1022.19 548.399 1064.96 552.846 1096.89 552.846C1120.2 552.846 1137.88 550.467 1143.36 544.366C1148.3 538.678 1142.54 531.129 1126.23 521.925ZM1139.8 542.504C1137.19 545.4 1127.05 550.26 1089.08 549.536C1061.25 549.019 1024.38 545.503 985.315 539.609C894.297 525.958 807.666 502.69 753.521 477.56C725.284 464.426 705.682 450.879 695.401 437.229C684.024 422.233 683.887 407.135 694.853 392.243C700.199 385.004 709.109 380.351 721.308 378.282C726.38 377.455 731.863 377.041 737.894 377.041C851.53 377.041 1120.2 522.442 1123.76 524.407C1133.63 529.888 1144.32 537.54 1139.8 542.504ZM984.022 495.92C984.217 496.01 984.33 496.061 984.355 496.071C986.412 497.209 992.854 500.828 989.701 504.241C987.919 506.309 982.436 507.033 975.034 507.033C954.747 507.033 920.341 501.035 911.569 499.484C865.922 491.211 823.566 479.318 798.344 467.632C772.986 455.843 764.213 444.364 772.163 433.506C774.082 430.92 777.372 429.162 781.758 428.335C799.578 424.922 839.193 435.264 899.369 459.152C938.947 474.863 974.846 491.634 982.75 495.327L982.751 495.327L983.594 495.721C983.765 495.8 983.908 495.867 984.022 495.92ZM912.528 496.381C959.134 504.758 984.081 504.965 986.412 502.379C986.686 502.276 986.274 501.035 981.888 498.553C978.05 496.692 837.959 430.713 789.572 430.713C786.967 430.713 784.774 430.92 782.718 431.334C779.291 431.954 777.098 433.195 775.727 434.953C769.01 444.054 777.235 454.085 800.401 464.84C825.211 476.422 867.156 488.212 912.528 496.381ZM141.206 882.53C150.391 882.53 161.631 880.772 175.338 876.429C293.037 839.052 347.06 782.397 399.345 727.565L399.593 727.305L403.842 722.859C419.606 706.312 428.516 686.767 429.475 666.394C430.435 645.918 423.444 626.063 408.914 608.896C394.11 591.316 375.879 580.871 354.632 577.768C328.862 574.046 298.706 581.491 265.122 599.796C152.721 661.224 70.0645 818.724 106.664 867.639C112.421 875.291 122.564 882.53 141.206 882.53ZM133.804 739.922C166.702 681.7 216.735 630.303 267.59 602.484C294.868 587.593 319.541 580.044 341.336 580.044C345.586 580.044 349.835 580.354 353.947 580.974C373.96 583.87 391.369 593.901 405.487 610.654C419.469 627.2 426.323 646.436 425.363 666.291C424.404 686.043 415.768 704.968 400.416 720.997L396.166 725.444C344.215 780.047 290.481 836.407 173.693 873.533C142.577 883.461 121.331 880.979 110.228 866.191C93.7785 844.06 102.963 794.421 133.804 739.922ZM213.993 805.487C205.495 808.175 198.504 809.313 192.884 809.313C182.055 809.313 176.161 805.28 173.008 801.04C163.55 788.423 169.307 761.742 187.949 731.442C207.414 700.004 236.611 671.462 266.219 655.329C285.821 644.677 303.366 640.334 318.582 642.506C331.056 644.264 341.884 650.365 350.52 660.707C367.655 681.183 366.558 707.243 347.505 727.202C317.211 758.95 284.176 783.149 213.993 805.487ZM268.686 657.914C239.763 673.737 210.978 701.762 191.787 732.786C173.83 761.639 167.936 787.906 176.709 799.592C182.466 807.348 194.529 808.382 212.486 802.694C281.846 780.667 314.332 756.779 344.215 725.444C362.309 706.519 363.405 681.803 347.093 662.465C339.006 652.951 329.274 647.263 317.896 645.608C315.566 645.298 313.236 645.091 310.768 645.091C298.295 645.091 284.313 649.435 268.686 657.914ZM244.972 750.47C246.754 750.47 248.948 750.16 251.552 749.333C271.839 742.921 281.297 735.889 290.07 726.685C295.827 720.687 296.239 712.724 291.03 706.623C288.288 703.417 284.998 701.555 281.023 700.935C276.363 700.211 270.88 701.555 264.985 704.761C247.029 714.586 231.676 738.991 238.119 747.575C238.941 748.816 240.997 750.47 244.972 750.47ZM267.316 707.243C271.428 704.968 275.129 703.83 278.419 703.83C278.967 703.83 279.652 703.83 280.201 703.934C282.942 704.347 285.41 705.795 287.466 708.174C291.715 713.241 291.441 719.86 286.643 724.824C278.282 733.614 269.235 740.232 249.907 746.334C245.658 747.678 242.779 747.575 241.546 745.92C237.022 739.922 249.085 717.274 267.316 707.243ZM1440.54 803.625C1468.64 794.008 1503.46 797.317 1538.41 812.932C1558.7 822.033 1578.85 834.856 1598.86 850.885V856.16C1550.48 815.001 1493.73 788.733 1442.46 806.107C1402.57 819.654 1384.34 857.814 1400.1 894.733C1404.9 905.902 1401.89 915.106 1391.19 922.138C1373.51 933.824 1335.4 938.684 1286.47 938.684C1144.6 938.684 911.02 897.939 815.342 863.812C763.253 845.198 721.445 841.992 690.878 854.298C664.011 865.157 646.191 888.528 639.474 921.828C634.677 945.509 603.287 970.432 543.522 997.94C491.844 1021.73 426.186 1044.17 368.34 1063.92C290.618 1090.39 223.589 1113.35 215.501 1130.21C214.404 1132.48 214.542 1134.55 215.775 1136.52C230.017 1158.73 292.414 1138.52 405.563 1101.88L405.898 1101.77C494.723 1072.92 616.309 1033.52 772.574 995.976C901.562 965.055 1013.83 968.571 1106.08 1006.73C1156.25 1027.41 1199.43 1057.92 1234.65 1097.53C1264.67 1131.24 1288.53 1171.57 1303.6 1214.28C1314.43 1244.69 1337.87 1269.92 1373.51 1289.47C1402.57 1305.39 1439.86 1317.7 1484.27 1325.87C1519.09 1332.38 1558.56 1336.31 1599 1337.45V1340.55C1558.29 1339.41 1518.4 1335.48 1483.31 1328.97C1438.35 1320.59 1400.52 1308.18 1371.04 1292.05C1334.58 1272.09 1310.59 1246.24 1299.63 1215.21C1284.69 1172.92 1260.97 1132.9 1231.23 1099.39C1196.41 1060.3 1153.64 1030.1 1104.16 1009.63C1012.87 971.984 901.699 968.467 773.808 999.181C617.817 1036.72 496.231 1076.12 407.543 1104.87C350.383 1123.38 305.148 1137.96 273.21 1144.79C238.53 1152.13 219.75 1150.06 212.074 1138.07C210.292 1135.38 210.155 1132.48 211.663 1129.38C220.277 1111.33 284.535 1089.37 365.939 1061.55L366.558 1061.33C481.701 1022.04 624.944 973.018 635.362 921.621C642.353 887.287 660.858 863.088 688.959 851.816C720.623 839.096 763.664 842.199 816.987 861.227C881.275 884.185 1008.62 910.142 1126.78 924.516C1263.58 941.166 1358.84 939.511 1388.32 920.07C1397.64 913.865 1400.24 905.902 1395.99 895.974C1379.54 857.504 1398.73 817.793 1440.54 803.625ZM1521.83 862.882C1507.57 859.572 1494.14 860.71 1481.94 866.191C1446.23 882.398 1453.95 912.103 1460.79 938.438L1460.83 938.581C1465.63 956.885 1470.15 974.155 1459.05 983.773C1451.37 990.391 1436.43 993.183 1413.54 992.149C1361.38 989.877 1311.28 981.52 1271 974.802L1270.84 974.776L1269.97 974.631C1216.83 965.812 1178.38 959.432 1164.34 971.26C1160.09 974.879 1158.03 978.912 1158.44 983.359C1159.54 997.423 1184.21 1013.87 1215.6 1034.65C1260.7 1064.64 1316.9 1102.08 1336.23 1152.34C1355.14 1201.36 1380.64 1249.86 1439.58 1272.3C1462.2 1280.88 1488.66 1285.23 1519.22 1285.23C1543.07 1285.23 1569.53 1282.64 1598.59 1277.37V1274.16C1532.79 1286.16 1480.98 1284.6 1441.36 1269.51C1383.93 1247.58 1358.71 1199.81 1340.07 1151.41C1320.33 1100.32 1263.71 1062.57 1218.21 1032.27L1217.83 1032.03L1217.83 1032.03L1217.83 1032.02C1187.44 1011.77 1163.51 995.82 1162.42 983.049C1162.14 979.429 1163.79 976.224 1167.35 973.225C1179.81 962.691 1219.47 969.277 1269.81 977.637L1270.02 977.671C1310.46 984.393 1360.9 992.77 1413.4 995.045C1437.66 996.079 1453.56 992.977 1462.2 985.531C1474.54 974.776 1469.88 956.782 1464.94 937.753C1457.95 911.176 1450.82 883.771 1484.13 868.673C1495.23 863.605 1507.57 862.675 1520.73 865.57C1543.9 870.844 1570.63 888.942 1598.73 918.001V912.624C1575.97 889.976 1548.83 868.983 1521.83 862.882ZM1513.6 1005.59C1514.29 986.151 1528.27 969.915 1548.28 965.055C1558.56 962.573 1575.97 961.745 1598.45 973.018V976.947C1580.91 967.744 1564.05 964.538 1549.38 968.054C1531.01 972.501 1518.26 987.599 1517.58 1005.7C1517.17 1018.83 1513.47 1027.1 1505.79 1032.38C1490.03 1043.24 1457.95 1041.79 1394.35 1038.89L1387.22 1038.58C1365.97 1037.65 1354.05 1039.41 1350.76 1044.06C1345.55 1051.51 1362.27 1068.06 1381.74 1087.19C1401.48 1106.63 1426.01 1130.83 1439.99 1156.89C1450.14 1175.71 1467.27 1188.74 1490.85 1195.46C1524.29 1204.98 1565.55 1200.74 1598.45 1194.01V1197.32C1580.5 1200.94 1558.15 1204.15 1535.67 1204.15C1519.77 1204.15 1503.87 1202.49 1489.34 1198.36C1464.67 1191.22 1446.71 1177.67 1436.16 1158.03C1422.54 1132.54 1398.36 1108.7 1378.83 1089.42L1378.45 1089.05C1356.51 1067.33 1340.75 1051.72 1347.19 1042.51C1351.44 1036.62 1364.19 1034.34 1387.63 1035.38L1394.76 1035.69L1395.03 1035.7C1455.45 1038.48 1488.68 1040.02 1503.18 1030C1509.9 1025.35 1513.19 1017.8 1513.6 1005.59ZM1513.74 1073.43C1500.85 1084.39 1496.88 1098.25 1502.64 1112.52C1508.94 1128.04 1532.24 1136.83 1571.86 1138.58C1577.07 1138.79 1582.28 1138.89 1587.21 1138.89C1591.05 1138.89 1594.89 1138.79 1598.45 1138.69V1135.58C1565.42 1136.52 1515.52 1134.03 1506.47 1111.49C1501.13 1098.25 1504.83 1085.43 1516.62 1075.4C1533.07 1061.44 1562.54 1054.3 1598.31 1055.23V1052.13C1561.58 1051.41 1531.01 1058.85 1513.74 1073.43ZM-168.338 755.685L-169.817 755.227C-212.31 741.99 -256.448 728.34 -294.555 722.031C-303.876 720.48 -312.649 719.549 -320.6 719.032V715.93C-312.375 716.447 -303.328 717.481 -293.733 719.032C-255.687 725.183 -211.849 738.752 -169.429 751.882L-168.309 752.228C-103.473 772.394 -42.2 791.422 -13.8255 780.15C-5.87512 777.048 -0.940399 771.67 1.38986 763.707C6.8457 744.876 -21.4925 725.533 -64.3131 696.305L-64.9545 695.867L-65.2802 695.646C-109.252 665.675 -169.263 624.773 -222.591 563.29C-257.408 522.959 -290.169 496.898 -320.463 485.006V481.593C-288.935 493.486 -255.078 520.167 -219.027 561.636C-166.103 622.714 -106.22 663.515 -62.3832 693.383L-62.0759 693.592C-17.8007 723.789 11.3964 743.748 5.50214 764.431C3.03479 773.221 -2.72238 779.53 -11.7693 783.046C-18.2119 785.528 -26.0251 786.665 -35.0721 786.665C-68.2001 786.665 -117.062 771.548 -168.338 755.685ZM-189.282 699.384C-175.026 699.384 -165.979 696.695 -162.278 691.421C-153.231 678.184 -180.509 652.951 -243.563 616.135C-272.075 599.589 -301.683 584.284 -320.326 574.873V578.492C-257.956 609.827 -151.586 669.083 -165.842 689.973C-168.858 694.42 -177.082 696.385 -188.596 696.385C-218.89 696.385 -272.623 683.354 -320.326 669.497V672.806C-310.045 675.805 -299.216 678.804 -288.25 681.7C-243.838 693.489 -210.665 699.384 -189.282 699.384ZM399.182 942.304C406.584 932.893 414.397 924.413 422.622 916.967C448.666 893.182 488.143 880.772 527.758 883.668C551.061 885.426 562.849 891.631 562.987 902.282C563.261 937.547 421.114 1011.18 357.1 1016.35C347.779 1017.18 340.651 1017.49 335.305 1017.49C323.79 1017.49 319.952 1015.93 318.582 1013.66C315.84 1008.9 325.71 1002.08 342.159 990.701C359.704 978.602 383.692 962.056 399.182 942.304ZM481.564 968.261C529.403 942.614 559.148 917.277 559.011 902.386C559.011 893.596 548.32 888.321 527.621 886.874C523.92 886.563 520.219 886.46 516.518 886.46C481.975 886.46 448.803 898.249 425.911 918.932C417.824 926.171 410.148 934.651 402.883 943.855C387.261 963.84 363.157 980.473 345.514 992.647L345.037 992.977L344.416 993.407C332.82 1001.44 320.941 1009.67 322.557 1012.32C323.516 1013.97 330.233 1015.42 356.826 1013.25C386.16 1010.87 435.095 993.183 481.564 968.261ZM-73.3162 247.774C-90.4506 253.048 -111.286 255.633 -135 255.633C-178.864 255.633 -232.597 246.74 -290.443 229.573C-300.45 226.677 -310.456 223.471 -320.326 220.059V216.646C-309.908 220.162 -299.49 223.575 -288.935 226.677C-200.659 253.048 -122.663 259.77 -74.687 245.085C-37.4025 233.709 -18.7603 210.027 -19.4457 174.867C-20.1311 138.051 -6.97186 110.646 20.7173 90.9977C88.2953 43.1169 231.813 51.2866 383.692 59.9734C388.93 60.2661 394.214 60.5646 399.527 60.8648L399.586 60.8681L399.587 60.8681L399.589 60.8682L399.59 60.8683L399.598 60.8687L399.601 60.8689C416.79 61.8399 434.287 62.8283 451.544 63.6963C572.719 69.6943 640.16 59.3529 652.222 33.0857C659.213 17.5736 646.328 -1.7649 626.041 -20.6897H631.387C651.126 -1.66149 663.463 17.8838 656.061 34.0164C645.506 56.871 597.255 68.35 512.132 68.35C493.489 68.35 473.202 67.8329 451.133 66.6953C433.873 65.8272 416.374 64.8387 399.183 63.8675L399.177 63.8672L399.176 63.8671L399.174 63.8671L399.171 63.8669L399.168 63.8667C393.837 63.5655 388.536 63.2661 383.281 62.9724C232.224 54.2856 89.6661 46.2193 23.4588 93.1694C-3.40793 112.094 -16.1559 138.775 -15.4705 174.66C-14.7851 211.268 -34.2498 235.778 -73.3162 247.774ZM-213.544 157.183C-164.197 154.908 -122.389 135.362 -89.0797 99.064L-83.5967 93.066L-83.4487 92.9047C-43.11 48.9575 -22.8358 26.8696 7.147 17.677C37.1664 8.47311 77.8777 11.7824 159.026 18.5043C163.816 18.9058 168.767 19.3073 173.863 19.7206L173.864 19.7206L173.864 19.7206L173.864 19.7206L173.864 19.7207C179.27 20.159 184.839 20.6106 190.553 21.0896C286.78 28.8457 356.414 31.5345 403.431 29.0525C448.803 26.674 474.573 19.7453 484.443 7.23214C490.474 -0.420517 490.2 -9.7278 485.265 -20.6897H481.016C485.95 -10.1415 486.499 -1.35124 480.879 5.68092C471.832 16.9531 446.473 23.675 403.157 25.9501C356.277 28.4321 286.917 25.8467 190.965 17.9872C185.25 17.5082 179.68 17.0565 174.275 16.6181L174.269 16.6177L174.266 16.6174C169.172 16.2044 164.224 15.8031 159.437 15.4019C77.6036 8.57652 36.6182 5.16385 5.50211 14.7814C-25.614 24.3989 -46.1752 46.7364 -87.0236 91.3079L-92.5066 97.3059C-125.13 132.777 -165.842 151.909 -213.818 154.08C-238.492 155.218 -274.268 152.012 -320.6 135.673V139.085C-279.888 153.253 -247.264 157.39 -223.002 157.39C-219.575 157.39 -216.423 157.286 -213.544 157.183ZM-117.591 49.1148C-124.308 65.4543 -137.741 77.2435 -157.343 84.1722C-172.421 89.4464 -190.241 91.618 -209.02 91.618C-246.305 91.618 -287.702 83.2415 -320.463 74.7615V71.4523C-271.664 84.1722 -203.263 96.8922 -159.262 81.3801C-140.757 74.865 -128.009 63.6962 -121.567 48.1841C-111.697 24.709 -109.504 1.02718 -111.149 -20.7932H-107.037C-105.392 1.33743 -107.585 25.3295 -117.591 49.1148ZM687.725 55.5265C660.584 95.9615 540.369 90.4805 538.998 90.3771C471.695 90.3771 409.188 86.7576 354.084 83.4483C272.113 78.5879 201.245 74.4513 148.883 84.6893C121.194 90.0668 99.6727 99.2707 83.2237 112.715C65.404 127.193 53.3413 146.738 46.2134 172.281C22.4995 257.701 -39.5956 267.939 -89.628 276.109L-89.8524 276.146C-119.914 281.094 -145.85 285.363 -154.465 305.582C-162.278 324.093 -153.231 360.909 -131.162 399.379C-107.585 440.641 -75.5093 472.596 -45.3527 484.799C-35.6204 488.729 -25.8881 490.694 -16.704 490.694C0.841583 490.694 17.4277 483.661 31.9576 469.907C53.9331 449.106 71.8312 426.46 89.1706 404.52L89.3921 404.239L89.4813 404.126C121.93 363.016 149.882 327.602 193.295 319.646C220.025 314.786 251.141 320.784 288.151 338.261C337.224 361.322 371.219 368.561 392.191 360.392C418.235 350.257 420.84 318.923 423.581 285.623C427.282 240.948 431.12 194.722 491.982 196.79C505.963 197.204 519.397 197.514 532.419 197.514C664.011 197.514 749.409 174.039 786.282 127.503C815.342 90.9976 807.94 46.9431 796.7 16.5393C791.354 1.95791 784.637 -10.8655 778.743 -20.7932H774.219C780.251 -10.8655 787.241 2.47498 792.724 17.47C812.6 71.5557 798.208 106.303 782.718 125.952C742.966 176.004 645.095 198.859 492.119 193.791C462.922 192.861 443.457 202.168 432.628 222.334C423.17 239.811 421.251 263.079 419.469 285.623C416.865 317.992 414.26 348.499 390.272 357.806C370.67 365.459 338.046 358.22 290.207 335.779C252.1 317.888 220.025 311.684 192.198 316.854C147.101 325.127 118.589 361.116 85.6911 402.895C68.4196 424.819 50.4628 447.466 28.5308 468.149C7.14703 488.315 -17.1153 492.969 -43.7078 482.214C-73.0419 470.321 -104.569 438.986 -127.735 398.345C-148.982 361.116 -158.303 324.3 -150.901 306.72C-142.95 288.105 -119.236 284.175 -89.0797 279.315L-88.9186 279.288C-63.7365 275.158 -35.292 270.493 -9.85028 255.84C19.6209 238.88 39.2226 211.785 49.9145 173.005C63.2108 124.917 93.9156 98.6502 149.568 87.7917C172.871 83.2415 200.149 81.5869 230.442 81.5869C265.905 81.5869 305.837 83.8997 348.761 86.3857L353.399 86.6542L357.26 86.8784C411.547 90.031 472.71 93.5829 538.45 93.5829H538.587C538.6 93.5829 538.675 93.5861 538.81 93.5918C541.671 93.7125 571.372 94.9657 603.698 91.4112C649.755 86.4473 679.089 74.865 691.152 57.0777C704.174 37.7392 695.812 11.6788 666.204 -20.6898H661.269C691.426 11.2652 700.199 36.9119 687.725 55.5265ZM501.851 118.506C607.81 123.056 675.799 114.266 698.28 93.0659C726.654 66.2816 722.131 33.0856 713.221 10.0242C708.56 -2.17863 702.255 -12.9337 696.909 -20.7932H701.57C706.778 -12.8303 712.673 -2.48888 717.196 9.19693C730.355 43.3236 724.872 73.0035 701.432 94.9273C677.719 117.265 610.415 126.158 501.577 121.505C420.84 118.092 345.997 108.061 345.311 107.958C345.285 107.958 345.108 107.936 344.787 107.898C341.705 107.53 325.384 105.579 302.544 105.579C287.054 105.579 268.686 106.51 249.496 109.302C219.888 113.645 193.98 121.608 172.734 133.087C146.278 147.358 126.677 167.11 114.614 191.826C90.4887 241.258 63.3478 275.075 31.5464 295.344C3.58304 313.131 -23.4207 317.785 -48.6425 321.094C-82.363 325.438 -93.7403 341.674 -97.4413 354.497C-104.706 380.247 -87.0236 415.098 -59.4715 429.059C-49.8763 433.919 -35.3463 437.952 -19.8568 429.989C6.59872 416.339 34.1508 389.968 63.2107 361.943L63.2657 361.89C91.0748 335.122 119.842 307.432 149.157 290.07C182.74 270.008 212.486 266.698 240.038 279.935C248.536 283.969 256.761 288.002 264.711 291.931C306.108 312.407 338.869 328.54 358.059 321.508C369.162 317.475 375.605 305.582 378.072 285.106C383.555 238.983 393.836 204.236 425.637 184.277C448.529 170.006 480.742 164.629 524.331 167.834C641.668 176.418 718.841 161.009 753.658 122.022C781.347 90.8942 776.55 50.149 767.64 21.3998C762.294 4.23305 754.892 -10.762 749.272 -20.8966H753.658C759.278 -10.6586 766.406 4.02622 771.615 20.6759C780.799 50.0456 785.734 91.7215 757.085 123.78C721.308 163.801 642.901 179.727 523.92 170.937C481.427 167.834 450.174 172.902 428.242 186.656C397.4 205.891 387.53 240.018 382.185 285.313C379.58 307.237 372.452 319.543 359.841 324.197C338.595 332.056 304.874 315.406 262.381 294.413C254.568 290.484 246.343 286.451 237.844 282.417C179.862 254.599 122.153 310.029 66.3635 363.701L65.4369 364.589C36.4461 392.39 9.05573 418.656 -17.6636 432.368C-24.2432 435.781 -31.234 437.435 -38.3619 437.435C-46.0381 437.435 -53.9885 435.47 -61.8018 431.541C-90.5875 416.959 -109.093 380.661 -101.416 353.773C-97.5784 340.019 -85.3787 322.646 -49.3279 317.992C-24.6544 314.786 1.80109 310.236 28.942 292.966C60.1951 273.11 86.9247 239.707 110.776 190.792C123.113 165.559 143.263 145.29 170.541 130.605C192.336 118.816 218.654 110.646 248.948 106.303C300.214 98.7537 345.723 104.855 346.134 104.959C346.819 105.062 421.388 115.093 501.851 118.506ZM305.56 130.915C290.481 127.503 274.169 128.64 259.502 134.018C243.053 140.119 195.488 163.491 193.98 190.896C193.158 206.615 207.14 220.989 235.514 233.813C252.512 241.465 266.63 252.324 279.104 261.941L279.33 262.115C292.384 272.169 302.871 280.246 312.002 280.246C312.825 280.246 313.647 280.142 314.469 280.039C320.09 279.108 324.339 274.971 327.766 267.112C340.925 237.329 359.841 182.623 338.458 151.495C331.467 141.154 320.364 134.225 305.56 130.915ZM323.928 266.181C321.049 272.8 317.622 276.316 313.647 277.04C306.138 278.276 295.094 269.766 282.275 259.889L282.12 259.77L281.782 259.509C269.779 250.247 254.954 238.808 237.707 231.124C210.704 219.024 197.27 205.477 198.093 190.999C199.463 165.146 245.384 142.705 261.284 136.81C269.783 133.708 278.83 132.156 287.877 132.156C293.497 132.156 298.98 132.777 304.326 134.018C317.896 137.12 328.177 143.532 334.757 153.046C343.804 165.87 354.221 197.721 323.928 266.181ZM267.041 182.002C271.839 180.244 277.185 179.831 282.12 180.968C286.917 182.106 290.618 184.381 293.086 187.897C299.939 197.825 294.045 214.888 289.933 224.195C289.248 225.953 287.877 228.332 284.861 228.849C284.45 228.952 284.176 228.952 283.765 228.952C280.37 228.952 277.111 226.416 272.787 223.052L272.661 222.954C268.96 220.059 264.711 216.749 259.639 214.474C250.455 210.338 245.932 205.581 246.206 200.307C246.72 190.423 264.444 183.081 266.787 182.11C266.945 182.045 267.033 182.009 267.041 182.002ZM283.902 225.746C284.313 225.746 285.135 224.919 285.958 223.161C289.11 216.025 295.69 198.445 289.522 189.241C287.603 186.552 284.861 184.794 281.023 183.967C279.515 183.657 277.87 183.45 276.362 183.45C273.758 183.45 271.291 183.864 268.823 184.794C265.122 186.242 250.729 192.964 250.318 200.513C250.044 204.443 253.882 208.269 261.695 211.785C267.178 214.267 271.839 217.887 275.54 220.783C275.726 220.923 275.915 221.066 276.107 221.211C279.02 223.415 282.487 226.038 283.902 225.746ZM1355.55 163.284C1303.19 177.038 1266.87 217.163 1247.81 282.521C1239.04 312.718 1217.11 331.746 1182.7 339.088C1118.28 352.946 1015.2 321.094 943.233 264.94C885.524 220.059 862.359 170.73 879.63 129.674C895.668 91.6181 900.191 50.2524 893.201 6.92179C891.693 -2.17866 889.637 -11.4859 887.169 -20.7932H882.92C885.524 -11.2791 887.581 -1.97183 889.088 7.33545C896.079 50.2524 891.556 91.2044 875.792 128.847C857.972 171.04 881.549 221.403 940.354 267.215C974.623 293.896 1017.66 316.337 1061.67 330.402C1092.92 340.433 1123.08 345.5 1149.67 345.5C1162 345.5 1173.52 344.362 1183.94 342.191C1219.3 334.642 1242.88 314.269 1251.93 283.245C1270.71 219.024 1305.93 179.727 1356.93 166.283C1429.58 147.151 1522.65 183.14 1598.59 224.816V220.989C1522.1 179.313 1429.03 144.049 1355.55 163.284ZM1280.03 147.151C1302.1 110.233 1335.82 87.9986 1380.09 81.2766C1452.88 70.2113 1542.8 103.718 1598.59 140.74V144.876C1571.59 126.365 1536.49 109.405 1501.81 98.1331C1457.54 83.6552 1415.73 78.8981 1380.91 84.1722C1338.01 90.7907 1305.39 112.301 1283.86 148.289C1252.89 199.996 1213.55 236.295 1166.67 256.254C1141.31 267.009 1114.03 272.49 1087.02 272.49C1071.95 272.49 1056.87 270.835 1042.2 267.319C1007.25 259.046 977.09 241.672 957.215 218.3C936.653 194.205 929.114 165.766 935.968 138.154C949.675 82.7244 954.884 29.2593 951.594 -20.7932H955.707C958.997 29.4661 953.788 83.1381 939.943 138.775C933.226 165.559 940.629 193.274 960.641 216.749C979.969 239.5 1009.3 256.46 1043.3 264.527C1071.4 271.145 1115.26 274.661 1164.61 253.668C1210.67 234.019 1249.46 198.238 1280.03 147.151ZM700.747 1392.78C697.183 1390.19 692.66 1389.16 687.451 1389.57C669.768 1391.02 645.643 1410.15 627.412 1427.01H632.758C650.167 1411.08 672.373 1394.02 687.862 1392.67C691.837 1392.36 695.127 1393.09 697.869 1395.05C707.327 1401.77 717.882 1414.08 727.477 1427.01H732.274C722.268 1413.36 711.028 1400.02 700.747 1392.78ZM1402.85 39.4973C1454.66 60.1801 1511.14 73.8308 1557.88 77.1401C1572.68 78.1742 1586.39 78.1742 1598.59 77.1401V80.2425C1586.12 81.2766 1572.41 81.2766 1557.47 80.2425C1509.49 76.9332 1453.84 63.4894 1400.93 42.2895C1343.57 19.3627 1294.55 54.2939 1237.76 94.7623L1237.53 94.9273C1193.12 126.779 1142.54 162.767 1079.76 175.797C1072.08 177.348 1065.09 178.176 1058.51 178.176C1045.08 178.176 1033.98 174.867 1025.34 168.145C1001.49 149.53 997.104 105.889 1012.32 38.3597C1017.25 16.6427 1023.56 -4.14353 1029.04 -20.7932H1033.29C1015.2 33.8095 988.605 135.052 1028.22 165.973C1039.87 174.97 1056.73 177.348 1078.53 172.798C1140.48 159.871 1190.52 124.194 1234.65 92.6522C1292.64 51.2865 1342.81 15.5052 1402.85 39.4973ZM1088.94 115.403C1091.14 115.61 1093.19 115.714 1095.39 115.714C1131.85 115.714 1172.56 85.5166 1194.35 66.6952C1223.28 41.8758 1251.38 9.61059 1270.98 -20.8966H1266.46C1247.13 8.88669 1219.58 40.3246 1191.34 64.627C1152.41 98.1332 1116.22 115.093 1089.49 112.301C1078.39 111.163 1071.12 107.337 1067.29 100.822C1052.89 76.0025 1091.82 18.2974 1122.39 -20.7932H1117.59C1111.56 -12.9337 1105.12 -4.45375 1098.95 4.33646C1065.37 52.0104 1053.44 84.8962 1063.58 102.063C1067.97 109.612 1076.47 114.059 1088.94 115.403ZM1530.05 44.5646C1502.77 41.9792 1472.21 33.2924 1439.03 18.711C1410.11 5.99107 1384.2 -9.10741 1365.84 -20.7932H1359.53C1378.31 -8.69376 1405.86 7.74911 1436.98 21.3998C1470.7 36.188 1501.81 45.0816 1529.64 47.667C1535.4 48.1841 1541.02 48.4943 1546.64 48.4943C1565.97 48.4943 1583.37 45.1851 1598.86 38.5666V34.9471C1578.99 43.7373 1556.1 47.0465 1530.05 44.5646ZM717.059 906.833C743.24 895.25 788.612 894.94 851.941 906.005C897.313 913.968 935.968 925.137 939.121 926.068C979.832 931.755 984.904 936.823 984.63 940.546C984.356 945.613 973.39 952.542 890.596 961.849C839.193 967.64 777.92 972.397 733.234 975.81L722.131 976.637C714.043 977.258 706.778 977.568 700.199 977.568C675.114 977.568 660.447 973.018 656.609 964.124C649.618 948.095 681.831 922.448 717.059 906.833ZM889.911 958.85C971.196 949.646 980.243 942.924 980.38 940.442C980.38 939.201 977.502 934.651 938.161 929.17L937.75 929.067L937.707 929.055L937.603 929.025L937.389 928.963C933.299 927.786 895.358 916.863 851.119 909.108C827.13 904.868 798.482 901.145 772.437 901.145C752.013 901.145 733.097 903.523 719.252 909.625C701.844 917.381 685.532 927.412 674.429 937.236C662.777 947.681 657.843 956.885 660.584 963.297C664.833 972.811 685.943 976.43 721.72 973.638L732.823 972.811C736.126 972.551 739.52 972.285 742.993 972.012C786.495 968.6 842.435 964.213 889.911 958.85ZM791.491 221.3C761.06 232.365 746.119 242.086 747.216 250.359C747.901 256.357 756.537 261.011 773.671 264.423C792.587 268.25 810.681 270.111 826.171 270.111C849.336 270.111 866.745 265.974 872.228 258.115C879.356 247.98 865.1 235.777 851.941 227.194C835.355 216.336 811.504 214.061 791.491 221.3ZM868.664 256.667C860.577 268.146 818.495 270.318 774.768 261.424C759.964 258.425 751.876 254.495 751.328 250.049C750.505 243.43 765.447 234.226 793.273 224.092C800.401 221.506 808.077 220.265 815.753 220.265C827.816 220.265 839.741 223.471 849.337 229.573C866.608 240.741 873.188 250.049 868.664 256.667ZM1013.14 1284.5C1066.05 1342.41 1108 1388.12 1179.41 1394.95C1234.11 1400.22 1265.22 1410.98 1271.94 1427.01H1267.55C1260.42 1412.73 1230.68 1403.01 1178.73 1398.05C1105.53 1391.02 1063.17 1344.9 1009.58 1286.36L1008.87 1285.59L1008.86 1285.58C994.279 1269.69 979.146 1253.2 962.286 1236.21C870.857 1144.17 759.004 1132.28 630.016 1200.84C554.077 1241.17 444.143 1306.22 349.835 1366.51C315.84 1388.33 285.272 1408.6 258.406 1427.01H252.374C286.232 1403.63 320.775 1381.09 347.23 1364.13C441.675 1303.74 551.746 1238.69 627.823 1198.25C697.046 1161.44 762.294 1147.37 821.647 1156.47C873.873 1164.54 922.398 1190.7 965.713 1234.24C982.721 1251.35 997.868 1267.86 1012.46 1283.76L1013.14 1284.5ZM789.846 1274.78C763.939 1266.2 737.346 1267.23 710.753 1277.78C644.82 1303.84 585.056 1334.66 533.104 1369.51C501.166 1390.91 477.04 1410.56 459.221 1427.01H464.704C505.278 1390.09 583.685 1331.45 712.535 1280.47C738.031 1270.44 763.39 1269.4 788.064 1277.57C837.822 1294.02 876.751 1344.69 900.602 1384.4C909.786 1399.5 917.463 1414.29 923.631 1427.01H928.017C921.712 1413.98 913.899 1398.77 904.441 1383.16C869.349 1324.73 830.694 1288.22 789.846 1274.78ZM1358.98 792.146C1355.55 792.146 1351.99 791.836 1348.15 791.112C1331.84 788.01 1315.94 779.943 1303.33 768.568C1292.09 758.433 1284.82 746.954 1283.86 737.75C1283.18 730.511 1286.33 725.341 1293.05 723.169C1307.85 718.308 1334.58 721.928 1372.69 734.027C1396.27 741.473 1400.79 758.847 1395.03 771.774C1390.23 782.322 1377.35 792.146 1358.98 792.146ZM1308.68 724.306C1303.06 724.306 1298.39 724.927 1294.69 726.168C1288.39 728.236 1287.57 733.51 1288.11 737.543C1289.76 753.676 1314.43 781.391 1349.25 788.113C1371.04 792.353 1385.99 782.529 1391.19 770.843C1396.4 759.157 1392.29 743.645 1371.18 736.923C1344.59 728.546 1323.48 724.306 1308.68 724.306ZM157.793 1041.79C144.359 1047.79 143.537 1058.54 148.334 1065.99C152.172 1071.78 160.123 1076.74 170.266 1076.74C173.419 1076.74 176.846 1076.23 180.273 1075.19C203.576 1068.06 217.283 1060.82 220.847 1053.78C222.629 1050.47 220.984 1046.96 216.324 1043.96C205.495 1036.93 177.943 1032.79 157.793 1041.79ZM217.009 1052.65C213.856 1058.75 200.56 1065.57 178.628 1072.3C166.291 1076.12 156.148 1070.95 151.898 1064.54C147.649 1058.13 148.471 1049.44 159.712 1044.48C167.251 1041.17 175.887 1039.82 184.248 1039.82C196.311 1039.82 207.688 1042.62 213.445 1046.34C215.912 1047.68 218.38 1050.06 217.009 1052.65ZM364.639 1321.01C359.293 1331.24 301.31 1353.58 282.12 1359.48C278.007 1360.72 274.032 1361.34 270.331 1361.23C258.543 1361.23 249.359 1355.55 244.835 1348.72C239.078 1340.03 240.175 1327.52 255.801 1320.59C283.216 1308.39 349.149 1306.43 362.308 1314.91C365.05 1316.56 365.872 1318.73 364.639 1321.01ZM257.857 1323.28C244.424 1329.28 243.464 1339.72 248.536 1347.38C253.608 1355.03 265.671 1361.23 280.475 1356.58C304.737 1349.03 356.414 1327.94 360.664 1319.87C361.075 1319.15 361.212 1318.32 359.567 1317.28C347.779 1309.73 282.942 1312.11 257.857 1323.28ZM-208.746 50.2524C-186.54 38.7734 -193.805 2.26815 -201.207 -20.7932H-205.457C-203.538 -15.002 -201.756 -8.2801 -200.248 -1.24793C-196.684 16.6427 -195.587 39.7041 -210.94 47.7704C-229.034 57.0777 -265.77 44.8748 -320.326 11.472V15.4018C-278.243 40.9451 -246.305 53.7684 -224.921 53.7684C-218.616 53.7684 -213.27 52.5275 -208.746 50.2524ZM604.246 735.268C584.096 735.268 562.575 733.717 547.223 729.27C525.291 723.065 524.057 713.551 527.21 706.726C530.363 699.384 536.805 694.006 546.538 690.8C563.946 685.112 591.361 686.457 627.96 694.937C654.964 701.245 677.307 709.208 677.581 709.311C689.096 713.655 689.507 717.791 687.999 720.48C683.476 728.236 654.964 732.786 629.879 734.441C622.066 734.958 613.293 735.268 604.246 735.268ZM548.045 693.696C539.41 696.488 533.652 701.245 530.911 707.76C527.484 715.723 533.378 722.031 548.731 726.478C566.825 731.649 597.804 733.51 629.468 731.442C658.665 729.477 681.145 724.513 684.161 719.343C685.669 716.654 680.323 713.965 675.662 712.207C674.292 711.69 614.801 690.593 572.034 690.593C563.124 690.593 554.899 691.421 548.045 693.696Z" fill="#FF709E"/>
</g>
<circle cx="1058" cy="124" r="56" fill="#292D35"/>
<circle cx="1058" cy="261" r="56" fill="#292D35"/>
<circle cx="1314" cy="380" r="56" fill="#292D35"/>
<circle cx="1174" cy="380" r="56" fill="#292D35"/>
<circle cx="1054" cy="115" r="54" fill="#604AFF" stroke="#292D35" stroke-width="4"/>
<circle cx="1054" cy="252" r="54" fill="#FFC621" stroke="#292D35" stroke-width="4"/>
<circle cx="1310" cy="371" r="54" fill="#FE5101" stroke="#292D35" stroke-width="4"/>
<circle cx="1170" cy="371" r="54" fill="#1AEF96" stroke="#292D35" stroke-width="4"/>
</g>
<defs>
<clipPath id="clip0_1_28696">
<rect width="1440" height="503" fill="white"/>
</clipPath>
</defs>
</svg>
