<svg width="333" height="393" viewBox="0 0 333 393" fill="none" xmlns="http://www.w3.org/2000/svg">
<g filter="url(#filter0_d_1_39861)">
<path d="M39.8209 0C55.7449 0 69.4944 25.6901 75.864 62.8297C83.0463 43.5567 92.8643 31.6676 103.693 31.6676C119.617 31.6676 133.366 57.3576 139.736 94.4972C146.918 75.2242 156.736 63.3351 167.564 63.3351C183.488 63.3351 197.238 89.0252 203.607 126.165C210.79 106.892 220.607 95.0027 231.436 95.0027C247.36 95.0027 261.109 120.693 267.479 157.832C274.661 138.559 284.479 126.67 295.307 126.67C311.231 126.67 324.981 152.36 331.351 189.5C338.533 170.227 348.351 158.338 359.179 158.338C381.165 158.338 399 207.279 399 267.669C399 328.059 381.165 377 359.179 377C343.255 377 329.505 351.31 323.136 314.17C315.954 333.443 306.136 345.332 295.307 345.332C279.383 345.332 265.634 319.642 259.264 282.503C252.082 301.776 242.264 313.665 231.436 313.665C215.512 313.665 201.762 287.975 195.393 250.835C188.21 270.108 178.392 281.997 167.564 281.997C151.64 281.997 137.891 256.307 131.521 219.168C124.339 238.441 114.521 250.33 103.693 250.33C87.7686 250.33 74.019 224.64 67.6494 187.5C60.4672 206.773 50.6492 218.662 39.8209 218.662C17.8348 218.662 0 169.721 0 109.331C0 48.9408 17.8129 0 39.8209 0Z" fill="#FE5101"/>
</g>
<defs>
<filter id="filter0_d_1_39861" x="0" y="0" width="399" height="393" filterUnits="userSpaceOnUse" color-interpolation-filters="sRGB">
<feFlood flood-opacity="0" result="BackgroundImageFix"/>
<feColorMatrix in="SourceAlpha" type="matrix" values="0 0 0 0 0 0 0 0 0 0 0 0 0 0 0 0 0 0 127 0" result="hardAlpha"/>
<feOffset dy="16"/>
<feComposite in2="hardAlpha" operator="out"/>
<feColorMatrix type="matrix" values="0 0 0 0 0.160784 0 0 0 0 0.176471 0 0 0 0 0.207843 0 0 0 1 0"/>
<feBlend mode="normal" in2="BackgroundImageFix" result="effect1_dropShadow_1_39861"/>
<feBlend mode="normal" in="SourceGraphic" in2="effect1_dropShadow_1_39861" result="shape"/>
</filter>
</defs>
</svg>
