<svg width="150" height="218" viewBox="0 0 150 218" fill="none" xmlns="http://www.w3.org/2000/svg">
<path d="M145.444 109.909L147.252 109.013L145.444 108.117L109.938 90.5242L131.898 57.5351L133.018 55.8535L131.002 55.983L91.4509 58.5243L94.017 18.9991L94.1479 16.9829L92.4654 18.1016L59.4758 40.0371L41.8833 4.55578L40.9874 2.74887L40.0914 4.55578L22.4989 40.0367L-10.4651 18.1018L-12.1466 16.9829L-12.017 18.9985L-9.47565 58.5244L-49.027 55.983L-51.0429 55.8535L-49.9235 57.5351L-27.9635 90.5244L-63.4442 108.117L-65.2511 109.013L-63.4442 109.909L-27.9639 127.501L-49.9233 160.465L-51.0438 162.147L-49.027 162.017L-9.47561 159.476L-12.017 199.027L-12.1466 201.044L-10.4647 199.923L22.4992 177.964L40.0914 213.444L40.9874 215.251L41.8833 213.444L59.4756 177.963L92.465 199.923L94.1479 201.044L94.017 199.026L91.4509 159.476L131.002 162.017L133.018 162.147L131.898 160.465L109.939 127.501L145.444 109.909Z" fill="#FE5101" stroke="#292D35" stroke-width="2"/>
</svg>
