<svg width="48" height="48" viewBox="0 0 48 48" fill="none" xmlns="http://www.w3.org/2000/svg">
<rect width="48" height="48" fill="#478FDE"/>
<path fill-rule="evenodd" clip-rule="evenodd" d="M33.4441 14.8082C33.7441 14.6819 34.0726 14.6383 34.3952 14.682C34.7178 14.7257 35.0228 14.8551 35.2785 15.0567C35.5341 15.2583 35.7311 15.5247 35.8488 15.8283C35.9665 16.1318 36.0008 16.4613 35.9479 16.7826L33.1939 33.4875C32.9268 35.0989 31.1588 36.0229 29.681 35.2203C28.4448 34.5488 26.6088 33.5142 24.9574 32.4347C24.1317 31.8944 21.6023 30.164 21.9132 28.9327C22.1803 27.88 26.4303 23.9238 28.8589 21.5717C29.8121 20.6477 29.3774 20.1146 28.2518 20.9646C25.4553 23.075 20.9685 26.2844 19.4846 27.1878C18.1756 27.9844 17.4932 28.1204 16.6772 27.9844C15.1885 27.7367 13.8078 27.353 12.681 26.8855C11.1583 26.254 11.2323 24.1606 12.6798 23.551L33.4441 14.8082Z" fill="#F2F2F2"/>
</svg>
